<?xml version="1.0" encoding="UTF-8"?>
<svg id="svg2" width="32" height="32" version="1.1" xmlns="http://www.w3.org/2000/svg" xmlns:cc="http://creativecommons.org/ns#" xmlns:dc="http://purl.org/dc/elements/1.1/" xmlns:rdf="http://www.w3.org/1999/02/22-rdf-syntax-ns#">
 <metadata id="metadata4">
  <rdf:RDF>
   <cc:Work rdf:about="">
    <dc:format>image/svg+xml</dc:format>
    <dc:type rdf:resource="http://purl.org/dc/dcmitype/StillImage"/>
    <dc:title/>
   </cc:Work>
  </rdf:RDF>
 </metadata>
 <g id="text820" fill="#00a651" stroke-width=".29842" aria-label="expotime">
  <path id="path819" d="m7.2483 8.5161v0.59452h-4.8785q0.075772 0.73441 0.5304 1.1016 0.45463 0.3672 1.2706 0.3672 0.65863 0 1.3464-0.19234 0.6936-0.19817 1.4222-0.59452v1.6087q-0.74023 0.27977-1.4805 0.41966-0.74023 0.14572-1.4805 0.14572-1.7719 0-2.7569-0.89761-0.97921-0.90344-0.97921-2.5296 0-1.597 0.96172-2.5121 0.96755-0.91509 2.6578-0.91509 1.5388 0 2.4597 0.92675 0.92675 0.92675 0.92675 2.4772zm-2.1449-0.6936q0-0.59452-0.34972-0.95589-0.34389-0.3672-0.90344-0.3672-0.60618 0-0.98504 0.34389-0.37886 0.33806-0.47212 0.97921z"/>
  <path id="path821" d="m10.472 8.4578-2.3548-3.1883h2.209l1.3348 1.9351 1.3522-1.9351h2.209l-2.3548 3.1766 2.4713 3.3515h-2.209l-1.4688-2.0633-1.4513 2.0633h-2.209z"/>
  <path id="path823" d="m18.602 10.853v3.4272h-2.0866v-9.011h2.0866v0.95589q0.43132-0.5712 0.95589-0.83932 0.52458-0.27394 1.2065-0.27394 1.2065 0 1.9817 0.96172 0.77521 0.95589 0.77521 2.4655 0 1.5096-0.77521 2.4713-0.77521 0.95589-1.9817 0.95589-0.68195 0-1.2065-0.26812-0.52458-0.27394-0.95589-0.84515zm1.3872-4.2257q-0.67029 0-1.0317 0.49543-0.35554 0.4896-0.35554 1.4164t0.35554 1.4222q0.36137 0.4896 1.0317 0.4896 0.67029 0 1.02-0.4896 0.35555-0.4896 0.35555-1.4222 0-0.93258-0.35555-1.4222-0.34972-0.4896-1.02-0.4896z"/>
  <path id="path825" d="m28.179 6.6043q-0.6936 0-1.0608 0.50126-0.36137 0.49543-0.36137 1.4338 0 0.93841 0.36137 1.4397 0.3672 0.49543 1.0608 0.49543 0.68195 0 1.0433-0.49543 0.36137-0.50126 0.36137-1.4397 0-0.93841-0.36137-1.4338-0.36137-0.50126-1.0433-0.50126zm0-1.4921q1.6845 0 2.6287 0.90926 0.95006 0.90926 0.95006 2.518t-0.95006 2.518q-0.94424 0.90926-2.6287 0.90926-1.6903 0-2.6462-0.90926-0.95006-0.90926-0.95006-2.518t0.95006-2.518q0.95589-0.90926 2.6462-0.90926z"/>
  <path id="path827" d="m4.1067 18.337v1.8535h2.1508v1.4921h-2.1508v2.7686q0 0.45463 0.18069 0.61783 0.18069 0.15737 0.71692 0.15737h1.0725v1.4921h-1.7894q-1.2357 0-1.7544-0.51292-0.51292-0.51875-0.51292-1.7544v-2.7686h-1.0375v-1.4921h1.0375v-1.8535z"/>
  <path id="path829" d="m7.5398 20.191h2.0866v6.528h-2.0866zm0-2.5413h2.0866v1.702h-2.0866z"/>
  <path id="path831" d="m17.693 21.275q0.39635-0.60618 0.93841-0.92092 0.54789-0.32057 1.2007-0.32057 1.1249 0 1.7136 0.6936t0.58869 2.0167v3.9751h-2.0983v-3.4039q0.0058-0.07577 0.0058-0.15737 0.0058-0.0816 0.0058-0.23314 0-0.6936-0.204-1.0025-0.204-0.31474-0.65863-0.31474-0.59452 0-0.92092 0.4896-0.32057 0.4896-0.33223 1.4164v3.2057h-2.0983v-3.4039q0-1.0841-0.18652-1.393-0.18652-0.31474-0.66446-0.31474-0.60035 0-0.92675 0.49543-0.3264 0.4896-0.3264 1.4047v3.2116h-2.0983v-6.528h2.0983v0.95589q0.38469-0.55372 0.88012-0.83349 0.50126-0.27977 1.1016-0.27977 0.67612 0 1.1949 0.3264 0.51875 0.3264 0.78686 0.91509z"/>
  <path id="path833" d="m30.609 23.437v0.59452h-4.8785q0.07577 0.7344 0.5304 1.1016 0.45463 0.3672 1.2706 0.3672 0.65863 0 1.3464-0.19234 0.6936-0.19817 1.4222-0.59452v1.6087q-0.74023 0.27977-1.4805 0.41966-0.74023 0.14572-1.4805 0.14572-1.7719 0-2.7569-0.89761-0.97921-0.90344-0.97921-2.5296 0-1.597 0.96172-2.5121 0.96755-0.91509 2.6578-0.91509 1.5388 0 2.4597 0.92675 0.92675 0.92675 0.92675 2.4772zm-2.1449-0.6936q0-0.59452-0.34972-0.95589-0.34389-0.3672-0.90344-0.3672-0.60618 0-0.98504 0.34389-0.37886 0.33806-0.47212 0.97921z"/>
 </g>
</svg>
