<?xml version="1.0" encoding="UTF-8"?>
<svg id="svg2" width="32" height="32" version="1.1" xmlns="http://www.w3.org/2000/svg" xmlns:cc="http://creativecommons.org/ns#" xmlns:dc="http://purl.org/dc/elements/1.1/" xmlns:rdf="http://www.w3.org/1999/02/22-rdf-syntax-ns#">
 <metadata id="metadata4">
  <rdf:RDF>
   <cc:Work rdf:about="">
    <dc:format>image/svg+xml</dc:format>
    <dc:type rdf:resource="http://purl.org/dc/dcmitype/StillImage"/>
    <dc:title/>
   </cc:Work>
  </rdf:RDF>
 </metadata>
 <path id="path822" d="m15.113 2.6367c5.4807 2.425 9.3027 7.8978 9.3027 14.285 0 5.0884-2.4336 9.5894-6.1895 12.441h2.8789c3.2085-3.176 5.2012-7.578 5.2012-12.441 0-5.8979-2.9346-11.11-7.4121-14.285h-3.7812zm9.084 0c2.5354 2.7336 4.3674 6.13 5.166 9.918v-5.7227c-0.73712-1.4982-1.6352-2.903-2.668-4.1953h-2.498zm-15.406 3.9492c-2.3065 0-4.4323 0.76874-6.1543 2.0508v2.209c1.566-1.5861 3.7422-2.5684 6.1543-2.5684 4.7843-2e-7 8.6445 3.8603 8.6445 8.6445s-3.8603 8.6445-8.6445 8.6445c-2.4121 0-4.5882-0.98221-6.1543-2.5684v2.2109c1.722 1.2824 3.8478 2.0508 6.1543 2.0508 5.699 0 10.336-4.6389 10.336-10.338s-4.637-10.336-10.336-10.336zm0 4.8926c-2.9953 0-5.4434 2.4481-5.4434 5.4434s2.4481 5.4434 5.4434 5.4434c2.9953 0 5.4434-2.4481 5.4434-5.4434s-2.4481-5.4434-5.4434-5.4434zm0 1.8906c1.974 0 3.5527 1.5788 3.5527 3.5527s-1.5788 3.5547-3.5527 3.5547c-1.974 0-3.5547-1.5807-3.5547-3.5547s1.5807-3.5527 3.5547-3.5527zm20.572 7.9199c-0.62766 2.9772-1.9006 5.7088-3.6406 8.0742h2.3027c0.48948-0.75472 0.93827-1.5373 1.3379-2.3496v-5.7246z" color="#000000" color-rendering="auto" dominant-baseline="auto" fill="#00a651" image-rendering="auto" shape-rendering="auto" solid-color="#000000" style="font-feature-settings:normal;font-variant-alternates:normal;font-variant-caps:normal;font-variant-ligatures:normal;font-variant-numeric:normal;font-variant-position:normal;isolation:auto;mix-blend-mode:normal;shape-padding:0;text-decoration-color:#000000;text-decoration-line:none;text-decoration-style:solid;text-indent:0;text-orientation:mixed;text-transform:none;white-space:normal"/>
</svg>
