<?xml version="1.0" encoding="UTF-8"?>
<svg id="svg2" width="32" height="32" version="1.1" xmlns="http://www.w3.org/2000/svg" xmlns:cc="http://creativecommons.org/ns#" xmlns:dc="http://purl.org/dc/elements/1.1/" xmlns:rdf="http://www.w3.org/1999/02/22-rdf-syntax-ns#">
 <metadata id="metadata4">
  <rdf:RDF>
   <cc:Work rdf:about="">
    <dc:format>image/svg+xml</dc:format>
    <dc:type rdf:resource="http://purl.org/dc/dcmitype/StillImage"/>
    <dc:title/>
   </cc:Work>
  </rdf:RDF>
 </metadata>
 <g id="text835" transform="scale(.87182 1.147)" fill="#00a651" stroke-width=".41218" aria-label="stat">
  <path id="path837" d="m8.1767 10.886v2.1897q-0.9258-0.38642-1.7872-0.57963-0.8614-0.19321-1.6262-0.19321-0.82114 0-1.2237 0.20931-0.39447 0.20126-0.39447 0.62793 0 0.34617 0.29787 0.53133 0.30592 0.18516 1.0868 0.27372l0.50718 0.07245q2.2139 0.28177 2.9787 0.9258t0.76479 2.0207q0 1.441-1.0627 2.1656-1.0627 0.72454-3.1719 0.72454-0.8936 0-1.8516-0.14491-0.94995-0.13685-1.9563-0.41862v-2.1897q0.8614 0.41862 1.763 0.62793 0.9097 0.20931 1.8436 0.20931 0.8453 0 1.272-0.23346 0.42667-0.23346 0.42667-0.69234 0-0.38642-0.29787-0.57158-0.28982-0.19321-1.1673-0.29787l-0.50718-0.0644q-1.9241-0.24152-2.6969-0.8936-0.77284-0.65209-0.77284-1.9804 0-1.433 0.98215-2.1253 0.98215-0.69234 3.0109-0.69234 0.79699 0 1.6745 0.12076 0.8775 0.12076 1.908 0.37837z"/>
  <path id="path839" d="m14.102 8.0441v2.56h2.9706v2.0609h-2.9706v3.824q0 0.62794 0.24956 0.85335 0.24956 0.21736 0.9902 0.21736h1.4813v2.0609h-2.4715q-1.7067 0-2.4232-0.70844-0.70844-0.71649-0.70844-2.4232v-3.824h-1.433v-2.0609h1.433v-2.56z"/>
  <path id="path841" d="m22.885 15.563q-0.90165 0-1.3605 0.30592-0.45082 0.30592-0.45082 0.90165 0 0.54743 0.36227 0.8614 0.37032 0.30592 1.0224 0.30592 0.8131 0 1.3686-0.57963 0.55548-0.58768 0.55548-1.4652v-0.33007zm4.4036-1.0868v5.1442h-2.9062v-1.3364q-0.57963 0.82114-1.3042 1.1995-0.72454 0.37032-1.763 0.37032-1.4008 0-2.2783-0.81309-0.86945-0.82114-0.86945-2.1253 0-1.5859 1.0868-2.3266 1.0949-0.74064 3.4295-0.74064h1.6986v-0.22541q0-0.68429-0.53938-0.99826-0.53938-0.32202-1.6825-0.32202-0.9258 0-1.7228 0.18516-0.79699 0.18516-1.4813 0.55548v-2.1978q0.9258-0.22541 1.8597-0.33812 0.93385-0.12076 1.8677-0.12076 2.4393 0 3.518 0.96605 1.0868 0.958 1.0868 3.1236z"/>
  <path id="path843" d="m33.133 8.0441v2.56h2.9706v2.0609h-2.9706v3.824q0 0.62794 0.24956 0.85335 0.24956 0.21736 0.9902 0.21736h1.4813v2.0609h-2.4715q-1.7067 0-2.4232-0.70844-0.70844-0.71649-0.70844-2.4232v-3.824h-1.433v-2.0609h1.433v-2.56z"/>
 </g>
</svg>
