<?xml version="1.0" encoding="UTF-8"?>
<!-- Created with Inkscape (http://www.inkscape.org/) -->
<svg id="svg2" width="24" height="24" version="1.1" xmlns="http://www.w3.org/2000/svg" xmlns:cc="http://creativecommons.org/ns#" xmlns:dc="http://purl.org/dc/elements/1.1/" xmlns:rdf="http://www.w3.org/1999/02/22-rdf-syntax-ns#">
 <metadata id="metadata4">
  <rdf:RDF>
   <cc:Work rdf:about="">
    <dc:format>image/svg+xml</dc:format>
    <dc:type rdf:resource="http://purl.org/dc/dcmitype/StillImage"/>
    <dc:title/>
   </cc:Work>
  </rdf:RDF>
 </metadata>
 <rect id="rect3151-6-6-8-0-6" x="3.42" y="3.411" width="17.179" height="17.179" color="#000000" fill="none"/>
 <path id="rect3173-9-1" d="m6.8613 12.527c-0.82947 0-1.5156 0.68616-1.5156 1.5156v5.0352c0 0.82947 0.68616 1.5156 1.5156 1.5156h10.291c0.82947 0 1.5156-0.68616 1.5156-1.5156v-5.0352c0-0.82947-0.68616-1.5156-1.5156-1.5156h-10.291zm1.877 0.69531h1.7969l1.4629 2.1211 1.457-2.1211h1.8066l-2.2266 3.2246 2.3145 3.3594h-1.791l-1.5605-2.248-1.5469 2.248h-1.8008l2.3145-3.3594-2.2266-3.2246z" color="#000000" color-rendering="auto" dominant-baseline="auto" image-rendering="auto" shape-rendering="auto" solid-color="#000000" style="font-feature-settings:normal;font-variant-alternates:normal;font-variant-caps:normal;font-variant-ligatures:normal;font-variant-numeric:normal;font-variant-position:normal;isolation:auto;mix-blend-mode:normal;shape-padding:0;text-decoration-color:#000000;text-decoration-line:none;text-decoration-style:solid;text-indent:0;text-orientation:mixed;text-transform:none;white-space:normal"/>
 <path id="rect3175-9-7" d="m7.8557 12.057c0-2.4486 1.8522-4.4198 4.153-4.4198s4.153 1.9712 4.153 4.4198v5.5674" color="#000000" fill="none" stroke="#000" stroke-linecap="round" stroke-width="1.8285"/>
</svg>
