<?xml version="1.0" encoding="UTF-8"?>
<svg id="svg8295" version="1.1" viewBox="0 0 32 32" xml:space="preserve" xmlns="http://www.w3.org/2000/svg" xmlns:cc="http://creativecommons.org/ns#" xmlns:dc="http://purl.org/dc/elements/1.1/" xmlns:rdf="http://www.w3.org/1999/02/22-rdf-syntax-ns#"><metadata id="metadata8301"><rdf:RDF><cc:Work rdf:about=""><dc:format>image/svg+xml</dc:format><dc:type rdf:resource="http://purl.org/dc/dcmitype/StillImage"/><dc:title/></cc:Work></rdf:RDF></metadata><line id="line8287" x1="25.712" x2="6.7701" y1="22.685" y2="22.685" fill="none" stroke="#00a14b" stroke-miterlimit="10" stroke-width="1.5"/><polygon id="polygon8289" transform="translate(-.22991)" points="25.463 20.953 28.467 22.68 25.47 24.417" fill="#00a14b" stroke="#00a14b" stroke-miterlimit="10" stroke-width="1.5"/><polygon id="polygon8291" transform="translate(-.22991)" points="3.993 22.676 7 20.953 6.988 24.417" fill="#00a14b" stroke="#00a14b" stroke-miterlimit="10" stroke-width="1.5"/><g id="text8305" transform="scale(1.1483 .87086)" aria-label="x"><g id="text822" transform="scale(.87086 1.1483)" stroke-width=".37365" aria-label="cal"><path id="path834" d="m12.117 9.25v2.131q-0.53275-0.36489-1.0728-0.54004-0.53275-0.17515-1.1093-0.17515-1.0947 0-1.7077 0.64221-0.60572 0.63492-0.60572 1.7807t0.60572 1.788q0.61302 0.63492 1.7077 0.63492 0.61302 0 1.1604-0.18245 0.55464-0.18245 1.0217-0.54004v2.1383q-0.61302 0.22623-1.2479 0.3357-0.62762 0.11677-1.2625 0.11677-2.2113 0-3.4592-1.1312-1.2479-1.1385-1.2479-3.16t1.2479-3.1527q1.2479-1.1385 3.4592-1.1385 0.64221 0 1.2625 0.11677 0.62762 0.10947 1.2479 0.3357z"/><path id="path836" d="m18.051 13.49q-0.81736 0-1.2333 0.27732-0.40868 0.27732-0.40868 0.81736 0 0.49626 0.3284 0.78087 0.3357 0.27732 0.92683 0.27732 0.73709 0 1.2406-0.52545 0.50356-0.53275 0.50356-1.3282v-0.29921zm3.9919-0.98522v4.6634h-2.6345v-1.2114q-0.52545 0.74438-1.1823 1.0874-0.65681 0.3357-1.5982 0.3357-1.2698 0-2.0653-0.73709-0.78817-0.74438-0.78817-1.9266 0-1.4377 0.98521-2.1091 0.99251-0.6714 3.1089-0.6714h1.5399v-0.20434q0-0.62032-0.48896-0.90494-0.48896-0.29192-1.5253-0.29192-0.83926 0-1.5617 0.16785t-1.3428 0.50355v-1.9923q0.83926-0.20434 1.6858-0.30651 0.84655-0.10947 1.6931-0.10947 2.2113 0 3.1892 0.87575 0.98522 0.86845 0.98522 2.8316z"/><path id="path838" d="m24.487 5.8127h2.6126v11.356h-2.6126z"/></g></g>
<line id="line8287-2" x1="2.1686" x2="2.1686" y1="26.413" y2="18.957" fill="none" stroke="#00a14b" stroke-miterlimit="10" stroke-width="1.5" style="font-variant-east_asian:normal"/><line id="line8287-2-1" x1="29.831" x2="29.831" y1="26.413" y2="18.957" fill="none" stroke="#00a14b" stroke-miterlimit="10" stroke-width="1.5"/></svg>
