<?xml version="1.0" encoding="UTF-8"?>
<svg width="32" height="32" viewBox="0 0 32 32" xmlns="http://www.w3.org/2000/svg">
  <!-- Simplified B for favicon -->
  <rect width="32" height="32" rx="8" fill="#2563eb"/>
  <path d="M8 6 L8 26 L18 26 C20.2091 26 22 24.2091 22 22 C22 20.8954 21.5771 19.8977 20.8629 19.1371 C21.2687 18.5521 21.5 17.8569 21.5 17.1111 C21.5 14.7944 19.7056 13 17.3889 13 L8 13 L8 6 Z M12 9 L12 15 L17.3889 15 C18.0522 15 18.5889 14.4633 18.5889 13.8 C18.5889 13.1367 18.0522 12.6 17.3889 12.6 L12 12.6 L12 9 Z M12 17 L12 22 L18 22 C18.8837 22 19.6 21.2837 19.6 20.4 C19.6 19.5163 18.8837 18.8 18 18.8 L12 18.8 L12 17 Z" fill="white"/>
</svg>