<?xml version="1.0" encoding="UTF-8" standalone="no"?>
<!-- Created with Inkscape (http://www.inkscape.org/) -->

<svg
   width="75.214111mm"
   height="86.849777mm"
   viewBox="0 0 75.214111 86.849777"
   version="1.1"
   id="svg1"
   xml:space="preserve"
   inkscape:version="1.4.2 (ebf0e940d0, 2025-05-08)"
   sodipodi:docname="logo.svg"
   xmlns:inkscape="http://www.inkscape.org/namespaces/inkscape"
   xmlns:sodipodi="http://sodipodi.sourceforge.net/DTD/sodipodi-0.dtd"
   xmlns="http://www.w3.org/2000/svg"
   xmlns:svg="http://www.w3.org/2000/svg"><sodipodi:namedview
     id="namedview1"
     pagecolor="#ffffff"
     bordercolor="#000000"
     borderopacity="0.25"
     inkscape:showpageshadow="2"
     inkscape:pageopacity="0.0"
     inkscape:pagecheckerboard="0"
     inkscape:deskcolor="#d1d1d1"
     inkscape:document-units="mm"
     inkscape:zoom="1.898221"
     inkscape:cx="139.6044"
     inkscape:cy="156.9891"
     inkscape:window-width="1920"
     inkscape:window-height="1013"
     inkscape:window-x="0"
     inkscape:window-y="0"
     inkscape:window-maximized="1"
     inkscape:current-layer="layer1" /><defs
     id="defs1" /><g
     inkscape:label="Calque 1"
     inkscape:groupmode="layer"
     id="layer1"
     transform="translate(-67.361438,-64.084975)"><path
       id="path3"
       style="fill:#ffffff;fill-opacity:1;stroke:#000000;stroke-width:2;stroke-dasharray:none;stroke-opacity:1"
       d="m 113.33484,120.55237 c -0.0979,0.053 -0.34674,0.061 -0.29377,0.15889 0.053,0.0979 0.29377,-0.27022 0.29377,-0.15889 0,0.2802 -0.21754,0.51796 -0.29377,0.7876 -0.14452,0.51113 0,1.77403 0,2.38907 0,0.7451 -0.15924,1.67254 0,2.38908 0.0575,0.25877 0.18718,0.49727 0.25148,0.75444 0.0407,0.16265 -0.0407,0.34032 0,0.50297 0.0227,0.0909 0.10301,0.16056 0.12574,0.25148 0.0407,0.16265 -0.053,0.34391 0,0.50296 0.0188,0.0562 0.10373,0.0707 0.12574,0.12574 0.16632,0.41581 0.0127,0.54121 0.12574,0.88019 0.0956,0.28673 0.38021,0.47825 0.50296,0.75445 0.22927,0.51585 0.30701,1.15207 0.62871,1.63463 0.38705,0.58057 0.74697,1.18332 1.13167,1.76037 0.18384,0.27576 0.68961,0.6883 0.88018,1.00593 0.0682,0.11365 0.0429,0.27372 0.12574,0.37722 0.13092,0.16364 0.40925,0.18978 0.50297,0.37722 0.0187,0.0375 0,0.0838 0,0.12574 0.0838,0.16766 0.15504,0.34223 0.25148,0.50297 0.11715,0.19524 0.32806,0.26062 0.50296,0.37722 0.33027,0.22018 0.41352,0.6529 0.75445,0.88018 0.15596,0.10398 0.347,0.14751 0.50296,0.25149 0.34258,0.22839 0.64529,0.53806 1.00593,0.75444 0.0808,0.0485 0.48746,0.11025 0.50296,0.12574 0.15128,0.15129 0.17137,0.37945 0.37723,0.50297 0.24109,0.14466 0.52951,0.20852 0.75444,0.37722 0.51214,0.3841 0.5387,0.43249 1.17761,0.26881" /><path
       sodipodi:type="star"
       style="fill:#ffffff;fill-opacity:1;stroke:#000000;stroke-width:1.47516;stroke-dasharray:none;stroke-opacity:1"
       id="path2"
       inkscape:flatsided="true"
       sodipodi:sides="6"
       sodipodi:cx="43.389175"
       sodipodi:cy="47.656963"
       sodipodi:r1="31.177658"
       sodipodi:r2="27.000645"
       sodipodi:arg1="0.52359878"
       sodipodi:arg2="1.0471976"
       inkscape:rounded="0"
       inkscape:randomized="0"
       d="M 70.389819,63.245793 43.389175,78.834621 16.388531,63.245792 l 1e-6,-31.177658 27.000644,-15.588829 27.000643,15.588829 z"
       transform="matrix(1.3557846,0,0,1.3557846,46.142119,42.897287)" /><path
       id="path1-1"
       style="fill:#000000"
       d="m 103.35046,78.534739 c -0.017,2.71e-4 -0.0335,0.0018 -0.0491,0.0052 -0.0356,0.0077 -0.0567,0.04326 -0.0925,0.04961 -0.1621,0.02876 -0.21333,0.07646 -0.32349,0.143144 -0.24281,0.146978 -1.85005,1.061163 -2.8975,1.962671 -2.48408,2.137986 -5.204354,6.376136 -6.179984,9.629386 -0.0864,0.28817 -0.204603,0.641909 -0.263033,0.785999 -0.0584,0.14408 -0.192477,0.527447 -0.297657,0.851627 -0.23151,0.71355 -0.748408,1.702739 -0.889868,1.702739 -0.0564,0 -0.502634,-0.255301 -0.991154,-0.566891 -1.13862,-0.72625 -1.797297,-1.024445 -3.248897,-1.471745 -1.1242,-0.34642 -1.299174,-0.363036 -3.992004,-0.371036 -3.31232,-0.01 -4.250147,0.139598 -4.937167,0.787548 -0.41626,0.39257 -0.433048,0.447272 -0.433048,1.401982 0,1.01731 0.05171,1.217633 0.624768,2.421558 0.7845,1.64801 3.192434,3.595885 5.400704,4.369239 1.1664,0.4085 1.658696,0.50683 3.012736,0.60203 l 1.37511,0.0966 -0.04237,0.72036 c -0.0405,0.6918 -0.0927,0.9164 -0.515731,2.22674 -0.18365,0.56883 -0.255038,0.76254 -0.570508,1.53944 -0.31147,0.76705 -1.030878,2.06712 -1.685168,3.0453 -0.58195,0.87002 -1.638483,2.79732 -1.938383,3.53621 -0.0731,0.18011 -0.262455,0.62296 -0.342615,0.80564 -0.0802,0.18268 -0.442959,1.20962 -0.523999,1.78129 -0.081,0.57167 -0.04703,2.20535 0.02067,3.19567 0.0677,0.99032 0.433192,1.97242 0.948262,3.2799 0.21759,0.55234 1.110987,1.71871 2.260327,3.11299 1.62191,1.96756 2.09045,3.12285 2.06189,5.41414 -0.0236,1.89135 -0.295311,3.33493 -0.356051,3.78788 -0.0766,0.57137 -0.393668,1.24863 -0.09922,1.58698 0.29444,0.33836 2.125451,-1.12086 2.125451,-1.12086 0.27016,-0.18001 0.856847,-0.68719 1.303797,-1.12758 0.44695,-0.44038 0.840819,-0.75508 0.875399,-0.69918 0.0346,0.0559 0.009,0.18735 -0.05736,0.29197 -0.0662,0.10462 -0.121373,0.31592 -0.122473,0.46974 -0.002,0.3112 -0.353232,1.55919 -0.537952,1.91255 -0.1758,0.33631 -0.136458,1.31009 0.06356,1.57354 0.24577,0.32376 0.783104,0.28464 1.395264,-0.1018 1.15374,-0.72832 2.678667,-2.18751 3.269567,-3.12849 0.50226,-0.79981 0.654224,-0.89585 0.654224,-0.41393 0,0.43914 0.572491,0.86093 1.168921,0.86093 0.3936,0 0.572913,-0.0991 1.005623,-0.55656 0.539599,-0.57043 1.230929,-1.46506 1.230929,-1.59318 0,-0.0394 0.20622,-0.39441 0.45837,-0.78858 0.25214,-0.39416 0.45837,-0.76461 0.45837,-0.82321 0,-0.24312 0.26213,-1.2802 0.42065,-1.61799 0.15852,-0.33779 -0.048,-0.19259 1.51515,-3.8008 0.1229,-0.28369 0.27237,-0.44727 0.42737,-0.51211 l 1.14876,-0.57929 c 1.33977,-1.42397 0.64598,-2.1581 -0.15451,-2.24845 -1.00477,0.27252 -1.53145,0.54813 -2.1053,1.02113 -0.84786,0.69888 -1.53384,1.99218 -2.10581,3.96772 -0.12515,0.43225 -0.27932,0.84162 -0.3421,0.91002 -0.0628,0.0684 -0.11369,0.2316 -0.11369,0.36225 0,0.13065 -0.052,0.34 -0.11524,0.46509 -0.0632,0.1251 -0.18888,0.46321 -0.279565,0.75137 -0.48311,1.53525 -1.177189,2.5428 -1.177189,1.70894 0,-0.7872 -0.532883,-1.51257 -1.111043,-1.51257 -0.5084,0 -0.783637,0.28503 -1.431437,1.48105 -0.47016,0.86805 -1.194322,2.01818 -1.561662,2.48099 -0.34901,0.43972 -0.433771,0.28518 -0.199471,-0.36277 0.11744,-0.32475 0.104288,-0.67969 -0.06046,-1.64641 -0.25335,-1.48707 -0.432763,-1.89901 -0.914673,-2.09962 -0.46001,-0.19149 -0.959941,0.0396 -1.261421,0.5824 -0.34121,0.61433 -1.949593,2.88819 -2.075843,2.88819 -2.53e-4,0 -0.0013,6e-5 -0.0015,0 l -5.17e-4,-5.1e-4 -5.16e-4,-5.2e-4 -5.17e-4,-5.2e-4 c -0.04023,-0.0668 0.498161,-1.78642 0.498161,-2.74815 0,-1.70652 -0.06869,-2.14357 -0.531234,-3.39049 -0.44971,-1.21223 -0.967212,-2.01209 -2.372982,-3.66748 -1.0138,-1.19382 -1.87559,-2.40038 -2.15129,-3.34036 -0.27569,-0.93998 -0.290174,-0.66188 -0.214974,-1.79628 0.0752,-1.1344 0.1123,-2.81722 0.66611,-3.95841 0.15514,-0.3197 0.281636,-0.62856 0.281636,-0.68626 0,-0.0577 0.361225,-0.70975 0.802535,-1.44901 0.44131,-0.73927 0.909613,-1.5317 1.040763,-1.76113 0.13115,-0.22944 0.390179,-0.6568 0.575159,-0.94982 0.43109,-0.6829 1.249536,-2.36252 1.249536,-2.56418 0,-0.0851 0.08421,-0.32567 0.187586,-0.53485 0.16763,-0.33926 0.530158,-1.71187 0.870748,-3.29644 0.066,-0.3072 0.120406,-0.75363 0.120406,-0.99167 0,-0.41431 0.280964,-1.565469 0.516764,-2.117699 0.0615,-0.14408 0.187703,-0.46822 0.280603,-0.72037 0.80465,-2.18399 3.549737,-4.753618 5.947957,-5.567618 1.33017,-0.45149 3.62566,-0.698027 5.66735,-0.687297 1.22502,0.006 2.37488,0.0821 3.13831,0.308508 0.76343,0.22645 1.67396,0.335383 2.32802,0.576193 0.65405,0.24081 1.74505,0.647068 1.98955,0.785998 0.24449,0.13892 2.51277,1.467828 3.34295,2.732133 0.40159,0.27482 1.00728,1.139308 1.17305,1.311548 0.16577,0.17224 0.20733,1.039501 0.68626,0.586011 0.67183,-0.63612 2.01394,-1.824962 2.23914,-1.983342 0.86144,-0.60582 2.07101,-1.235123 2.88148,-1.499133 1.79529,-0.58482 6.29644,-0.716788 8.57932,-0.251148 0.76119,0.15526 1.44126,0.411333 1.44126,0.542603 0,0.27347 -1.10593,1.707095 -1.7353,2.249475 -1.67025,1.43943 -4.65554,2.992118 -6.51691,3.389968 -2.69617,0.57629 -3.41954,0.62806 -5.13871,0.36639 -0.92471,-0.14078 -1.03624,-0.13348 -1.27744,0.0847 -0.2936,0.2657 -0.35867,1.11677 -0.14004,1.82676 0.14062,0.45667 0.44116,1.94954 0.65112,3.23339 0.27949,1.70894 0.13194,4.3401 -0.33124,5.90404 -0.10005,0.33772 -0.1819,0.73161 -0.1819,0.87591 0,0.1443 -0.0587,0.29915 -0.13075,0.34365 -0.0721,0.0445 -0.13125,0.18664 -0.13125,0.31574 0,0.20973 -0.25766,0.76342 -0.79995,1.71773 -0.45513,0.80094 -1.64599,2.28132 -2.31356,2.87631 -0.59335,0.52884 -1.61567,1.12354 -2.54971,1.5012 0.12084,0.777 0.24097,1.39852 -0.0628,2.07316 0.34146,-0.10043 0.32758,-0.12918 0.45404,-0.17974 0.73225,-0.29289 1.04199,-0.41892 1.40818,-0.57205 0.21612,-0.0904 0.54027,-0.22361 0.72037,-0.29611 0.1801,-0.0725 1.07572,-0.71788 1.7048,-1.42162 0.62908,-0.70374 1.67846,-2.11977 1.67846,-2.11977 0.65849,-0.91788 1.49512,-2.48103 1.62935,-3.04477 0.0427,-0.1794 0.14348,-0.56193 0.22428,-0.85008 0.55766,-1.98807 0.65732,-2.75741 0.65732,-5.08289 0,-2.21635 -0.0554,-2.72467 -0.49557,-4.54443 -0.0436,-0.1801 -0.0823,-0.38637 -0.0863,-0.45837 -0.004,-0.0768 0.69757,-0.16719 1.6955,-0.21859 2.79865,-0.14408 4.29299,-0.52946 6.86573,-1.76992 2.35928,-1.137522 4.46596,-2.871709 5.61981,-4.626069 0.4277,-0.65028 0.47326,-0.806374 0.47026,-1.601969 -0.003,-0.7512 -0.0506,-0.932155 -0.3235,-1.224215 -0.94126,-1.0075 -3.22037,-1.495183 -6.99027,-1.496033 -3.13522,-7e-4 -4.52816,0.248211 -6.535,1.167371 -1.0327,0.47299 -1.75748,0.921823 -2.67374,1.655713 -0.55796,0.44693 -0.72632,0.324459 -0.48679,-0.354501 0.10416,-0.29535 0.0518,-0.369458 0.18914,-0.840258 0.13731,-0.47079 0.41834,-1.516494 0.7214,-2.331124 0.30306,-0.81463 0.39509,-1.110195 0.78341,-1.982825 0.38832,-0.87262 2.03154,-4.026363 3.65301,-6.283337 0.8356,-1.163108 0.87112,-1.462883 0.23616,-2.007113 -0.3231,-0.276918 -0.43912,-0.29531 -1.46451,-0.23151 -0.98991,0.06159 -2.7031,0.506345 -2.96726,0.770495 -0.0488,0.0488 -0.16325,0.08888 -0.25425,0.08888 -0.091,0 -0.53794,0.177391 -0.99322,0.394291 -3.46939,1.6528 -5.63609,3.58624 -7.96747,7.11016 l -0.58859,0.889868 -0.85112,-0.08165 c -0.46827,-0.045 -1.20537,-0.135938 -1.63762,-0.201538 -0.43224,-0.0656 -1.32741,-0.11935 -1.98954,-0.11989 -0.66213,-5e-4 -1.23063,-0.04522 -1.26298,-0.09922 -0.0324,-0.054 -0.006,-0.393232 0.0584,-0.753442 0.0644,-0.3602 0.17428,-1.008489 0.24391,-1.440739 0.0696,-0.43224 0.22113,-1.139747 0.33693,-1.571997 0.1369,-0.78529 0.43283,-1.52477 0.62994,-2.29185 0.27353,-1.205722 0.46148,-2.099098 0.72398,-2.545064 0.2625,-0.445966 0.30935,-1.406967 0.20619,-1.817977 -0.0878,-0.350091 -0.48961,-0.685678 -0.74465,-0.681612 z m -1.86036,3.472656 h 5.2e-4 c 0.23123,-5.1e-5 0.11498,-0.02801 -0.008,0.476457 -0.27711,1.131543 -0.0782,0.48859 -0.57671,2.112016 -0.12106,0.39424 -0.45981,1.751205 -0.79943,4.084505 -0.160014,1.09932 -0.284113,1.317232 -0.751893,1.317232 -0.28284,0 -1.020682,0.20088 -1.933732,0.5271 -0.14408,0.0515 -0.586659,0.248796 -0.983919,0.438216 -0.39726,0.18942 -0.765555,0.344165 -0.818555,0.344165 -0.16847,0 -0.105149,-0.326168 0.180351,-0.925008 1.21543,-2.54932 1.635354,-3.383891 1.872754,-3.724321 0.1505,-0.21582 0.383714,-0.59867 0.518314,-0.85111 0.559204,-1.04881 2.94654,-3.796735 3.30057,-3.799252 z m 17.42943,1.16427 c 0.0195,6.22e-4 0.0366,0.0028 0.0512,0.0067 0.1165,0.03166 0.0763,0.170303 -0.11214,0.418063 -0.12971,0.17056 -0.33749,0.516288 -0.46198,0.768428 -0.12448,0.25214 -0.35114,0.665117 -0.50385,0.917257 -0.59161,0.97682 -1.85999,3.674638 -2.15181,4.577498 -0.10602,0.32801 -0.24666,0.714266 -0.31316,0.858346 -0.24695,0.53535 -0.58927,1.561785 -0.59427,1.878955 -0.0947,0.38792 -0.16962,0.516039 -0.38551,0.789099 l -0.5147,-0.437183 c -0.59617,-0.50608 -2.28448,-1.456645 -3.15278,-1.775085 -0.77603,-0.28461 -0.98237,-0.400718 -0.98237,-0.552938 0,-0.31616 1.20354,-1.961652 2.1885,-2.992582 1.93764,-2.02811 3.60661,-3.173749 6.15776,-4.226099 0.38231,-0.157707 0.63891,-0.234831 0.77515,-0.230477 z M 85.008423,93.175706 c 1.61757,0.0595 2.827419,0.302909 3.666959,0.734839 0.12693,0.0653 0.512045,0.252692 0.855245,0.416512 0.3432,0.16381 0.689096,0.376639 0.768946,0.472839 0.0798,0.0962 0.20711,0.174666 0.28267,0.174666 0.0756,0 0.240769,0.0941 0.367419,0.208773 0.21819,0.197465 0.20827,0.243934 -0.19482,0.884184 -0.23398,0.37166 -0.501382,0.881641 -0.593762,1.133781 -0.0924,0.25215 -0.218316,0.576289 -0.280086,0.720369 -0.0618,0.14409 -0.129369,0.409528 -0.150379,0.589628 -0.0378,0.32368 -0.0545,0.328002 -1.413867,0.360702 -0.75643,0.0182 -1.46342,-0.02502 -1.57148,-0.09612 -0.10806,-0.0712 -0.327636,-0.130775 -0.487826,-0.131775 -0.56358,-0.004 -2.96227,-1.324134 -3.84886,-2.118734 -0.46209,-0.41414 -1.202541,-1.396921 -1.414901,-1.877921 -0.0954,-0.21612 -0.225231,-0.495544 -0.288871,-0.620634 -0.34889,-0.68584 -0.122472,-0.760944 2.549198,-0.849044 0.63117,-0.0208 1.215225,-0.02197 1.754415,-0.0021 z m 4.236434,18.469154 c -0.04225,-1.5e-4 -0.08479,0.004 -0.127641,0.0109 -0.11428,0.0194 -0.229845,0.0651 -0.342615,0.13901 -0.26377,0.17283 -0.326595,0.32156 -0.326595,0.77412 0,0.83137 0.63115,1.69504 1.69137,2.31458 0.14531,0.0849 0.179533,0.4407 0.159163,1.65882 -0.0176,1.05277 0.0387,1.79486 0.175183,2.31045 0.11062,0.41775 0.201022,0.81417 0.201022,0.88057 0,0.0665 -0.486215,0.10787 -1.080555,0.092 l -1.080554,-0.0289 -0.03979,0.53692 c -0.0324,0.44198 0.0142,0.57148 0.262,0.72916 0.39632,0.25215 1.996519,0.7382 2.659269,0.8077 1.09309,0.11456 2.725524,-0.25768 3.370854,-0.45269 0.64533,-0.19501 0.668298,-0.26282 1.313098,-0.56895 0.64479,-0.30613 2.340562,-1.96475 2.778642,-2.89078 0.32893,-0.6953 0.347455,-0.80502 0.184485,-1.09503 -0.2041,-0.36324 -0.830459,-0.58461 -1.158069,-0.40928 -0.11933,0.0639 -0.35797,0.39017 -0.5302,0.72503 -0.50635,0.98451 -1.493977,1.86797 -2.734717,2.44687 -0.71346,0.33289 -1.241168,0.49864 -1.506368,0.47284 -0.37499,-0.0365 -0.432107,-0.10925 -0.703317,-0.89141 -0.25055,-0.72259 -0.290219,-1.07791 -0.261999,-2.34922 l 0.03359,-1.4981 0.589111,-0.21084 c 1.12893,-0.40435 1.795785,-0.77905 2.479435,-1.39371 0.61052,-0.54891 0.679072,-0.66282 0.609782,-1.00924 -0.0429,-0.21475 -0.143836,-0.46999 -0.224276,-0.56689 -0.26274,-0.31659 -0.949832,-0.20439 -1.566312,0.25528 -0.77213,0.57574 -1.332551,0.78045 -2.312521,0.84595 -0.76322,0.051 -0.841499,0.0298 -1.178739,-0.32195 -0.19869,-0.20726 -0.460647,-0.56368 -0.581877,-0.7922 -0.179497,-0.33834 -0.455119,-0.5198 -0.750858,-0.5209 z"
       sodipodi:nodetypes="scsscccsscsccscccccssssccsssccscscccscssssssssssccccscsccssssscsssccccscssssssscsccscssccsscsccssscsccsscscsssccccsscccscccssccsscccsssssssccccsccscccscssscssscsscscssscsssccccsscsscscsscccccsccsccccsccssscscccccssscccscscccsccsccssccscs" /><path
       d="m 101.95298,104.23588 c -0.2698,-0.0147 -0.53973,0.0338 -0.65939,0.15349 -0.20854,0.20849 -0.20458,1.91427 0.006,2.62827 0.2146,0.72713 1.39299,1.91638 2.19418,2.21485 0.91017,0.33901 1.97792,0.30242 2.82257,-0.0972 0.81355,-0.38484 1.62417,-1.10692 1.9389,-1.72702 0.11883,-0.23412 0.30432,-0.59691 0.41238,-0.80615 0.20617,-0.39916 0.26253,-1.40853 0.0935,-1.67432 -0.0544,-0.0855 -0.25093,-0.2131 -0.43666,-0.2837 -0.46214,-0.17571 -0.91006,0.0656 -1.18495,0.63872 -0.12011,0.25042 -0.35377,0.74207 -0.51935,1.09244 -0.43386,0.91811 -0.94177,1.26245 -1.8619,1.26245 -0.68503,0 -0.77879,-0.0383 -1.24592,-0.50539 -0.46629,-0.46629 -0.51249,-0.5794 -0.59997,-1.4733 -0.0567,-0.57934 -0.17736,-1.06073 -0.30077,-1.19785 -0.11942,-0.1327 -0.38907,-0.21058 -0.65888,-0.22532 z"
       style="fill:#000000"
       id="path1-3" /><path
       d="m 94.931377,106.84785 c 0.50647,0.006 1.02023,-0.0583 1.31155,-0.19689 1.69949,-0.80823 2.38729,-3.07784 0.93276,-3.07784 -0.36646,0 -0.49976,0.0972 -0.9033,0.65887 -0.51479,0.71656 -0.98116,0.97306 -1.5596,0.85783 -0.38273,-0.0762 -0.86098,-0.53606 -0.86868,-0.83509 -0.002,-0.0933 -0.14925,-0.31461 -0.32608,-0.49144 -0.38088,-0.38088 -0.36835,-0.37936 -0.93586,-0.11008 -0.37884,0.17977 -0.44545,0.27883 -0.44545,0.66043 0,0.81547 0.67266,1.83105 1.52652,2.30477 0.26247,0.1456 0.76168,0.22298 1.26814,0.22944 z"
       style="fill:#000000"
       id="path1-36" /><path
       style="fill:none;fill-opacity:1;stroke:#000000;stroke-width:1.8;stroke-dasharray:none;stroke-opacity:1"
       d="m 111.7079,119.71112 c -1.28701,6.52043 3.36491,17.37034 9.66665,20.59689"
       id="path4"
       sodipodi:nodetypes="cc" /><path
       style="fill:none;fill-opacity:1;stroke:#000000;stroke-width:1.8;stroke-dasharray:none;stroke-opacity:1"
       d="m 99.213414,131.8164 c 0.891336,7.80966 0.511685,14.27359 6.813416,17.50014"
       id="path5"
       sodipodi:nodetypes="cc" /></g></svg>
