<?xml version="1.0" encoding="UTF-8"?>
<svg id="svg2" version="1.1" viewBox="0 0 32 32" xml:space="preserve" xmlns="http://www.w3.org/2000/svg" xmlns:cc="http://creativecommons.org/ns#" xmlns:dc="http://purl.org/dc/elements/1.1/" xmlns:rdf="http://www.w3.org/1999/02/22-rdf-syntax-ns#"><metadata id="metadata16"><rdf:RDF><cc:Work rdf:about=""><dc:format>image/svg+xml</dc:format><dc:type rdf:resource="http://purl.org/dc/dcmitype/StillImage"/></cc:Work></rdf:RDF></metadata><path id="path836" d="m27.709 18.177 2.6431 1.5256c0.30185 0.17422 0.44196 0.53449 0.33857 0.86736-0.68657 2.2105-1.8588 4.2076-3.3918 5.8663a0.74524 0.74524 0 0 1-0.91989 0.13979l-2.6411-1.5254a11.882 11.882 0 0 1-3.7683 2.1788v3.0503a0.74487 0.74487 0 0 1-0.58156 0.72676c-2.168 0.48686-4.4964 0.51204-6.7738 3.93e-4 -0.34049-0.07647-0.58318-0.37808-0.58318-0.72707v-3.0504a11.88 11.88 0 0 1-3.7683-2.1788l-2.6411 1.5254a0.74524 0.74524 0 0 1-0.91989-0.13979c-1.533-1.6587-2.7053-3.6557-3.3918-5.8663-0.10339-0.3328 0.0367-0.69308 0.33857-0.86736l2.6431-1.5256a12 12 0 0 1 0-4.3538l-2.6431-1.5256c-0.30185-0.17422-0.44196-0.53449-0.33857-0.86736 0.68657-2.2105 1.8588-4.2076 3.3918-5.8663a0.74524 0.74524 0 0 1 0.91989-0.1398l2.6411 1.5254a11.882 11.882 0 0 1 3.7683-2.1788v-3.0504a0.74487 0.74487 0 0 1 0.58156-0.72675c2.168-0.48686 4.4964-0.51204 6.7738-3.92e-4 0.34049 0.07647 0.58318 0.37808 0.58318 0.72707v3.0504a11.88 11.88 0 0 1 3.7683 2.1788l2.6411-1.5254a0.74524 0.74524 0 0 1 0.91989 0.13979c1.533 1.6587 2.7053 3.6557 3.3918 5.8663 0.10339 0.3328-0.0367 0.69308-0.33857 0.86736l-2.6431 1.5256a12 12 0 0 1 0 4.3538zm-6.7471-2.1769c0-2.7358-2.2258-4.9616-4.9616-4.9616s-4.9616 2.2258-4.9616 4.9616c0 2.7358 2.2258 4.9616 4.9616 4.9616s4.9616-2.2258 4.9616-4.9616z" fill="#9eabb0" stroke-width=".06202"/><circle id="path849" cx="16" cy="16" r="5.4901" fill="#fff" stop-color="#000000" stroke-linecap="round" stroke-width="75" style="paint-order:stroke fill markers"/></svg>
