<?xml version="1.0" encoding="UTF-8"?>
<svg id="svg2" width="32" height="32" version="1.1" xmlns="http://www.w3.org/2000/svg" xmlns:cc="http://creativecommons.org/ns#" xmlns:dc="http://purl.org/dc/elements/1.1/" xmlns:rdf="http://www.w3.org/1999/02/22-rdf-syntax-ns#">
 <metadata id="metadata4">
  <rdf:RDF>
   <cc:Work rdf:about="">
    <dc:format>image/svg+xml</dc:format>
    <dc:type rdf:resource="http://purl.org/dc/dcmitype/StillImage"/>
    <dc:title/>
   </cc:Work>
  </rdf:RDF>
 </metadata>
 <g id="text838" transform="scale(.95548 1.0466)" fill="#00a651" stroke-width=".46999" aria-label="sat">
  <path id="path833" d="m9.6405 11.795v2.4969q-1.0557-0.44062-2.0379-0.66094-0.98223-0.22031-1.8543-0.22031-0.93633 0-1.3953 0.23867-0.4498 0.22949-0.4498 0.71602 0 0.39473 0.33965 0.60586 0.34883 0.21113 1.2393 0.31211l0.57832 0.08262q2.5244 0.32129 3.3965 1.0557 0.87207 0.73438 0.87207 2.3041 0 1.6432-1.2117 2.4693-1.2117 0.82617-3.6168 0.82617-1.0189 0-2.1113-0.16523-1.0832-0.15606-2.2307-0.47734v-2.4969q0.98223 0.47734 2.0104 0.71602 1.0373 0.23867 2.1021 0.23867 0.96387 0 1.4504-0.26621 0.48652-0.26621 0.48652-0.78945 0-0.44062-0.33965-0.65176-0.33047-0.22032-1.3311-0.33965l-0.57832-0.073438q-2.1939-0.27539-3.0752-1.0189-0.88125-0.74356-0.88125-2.2582 0-1.634 1.1199-2.4234 1.1199-0.78945 3.4332-0.78945 0.90879 0 1.9094 0.1377 1.0006 0.1377 2.1756 0.43144z"/>
  <path id="path835" d="m17.416 17.128q-1.0281 0-1.5514 0.34883-0.51406 0.34883-0.51406 1.0281 0 0.62422 0.41309 0.98223 0.42227 0.34883 1.1658 0.34883 0.92715 0 1.5605-0.66094 0.6334-0.67012 0.6334-1.6707v-0.37637zm5.0213-1.2393v5.8658h-3.3139v-1.5238q-0.66094 0.93633-1.4871 1.3678-0.82617 0.42226-2.0104 0.42226-1.5973 0-2.5979-0.92715-0.99141-0.93633-0.99141-2.4234 0-1.8084 1.2393-2.6529 1.2484-0.84453 3.9105-0.84453h1.9369v-0.25703q0-0.78027-0.61504-1.1383-0.61504-0.36719-1.9186-0.36719-1.0557 0-1.9645 0.21113t-1.6891 0.6334v-2.5061q1.0557-0.25703 2.1205-0.38555 1.0648-0.1377 2.1297-0.1377 2.7814 0 4.0115 1.1016 1.2393 1.0924 1.2393 3.5617z"/>
  <path id="path837" d="m29.101 8.5544v2.9191h3.3873v2.35h-3.3873v4.3604q0 0.71602 0.28457 0.97305 0.28457 0.24785 1.1291 0.24785h1.6891v2.35h-2.8182q-1.9461 0-2.7631-0.80781-0.80781-0.81699-0.80781-2.7631v-4.3604h-1.634v-2.35h1.634v-2.9191z"/>
 </g>
</svg>
