<?xml version="1.0" encoding="UTF-8"?>
<svg id="svg2" width="32" height="32" version="1.1" xmlns="http://www.w3.org/2000/svg" xmlns:cc="http://creativecommons.org/ns#" xmlns:dc="http://purl.org/dc/elements/1.1/" xmlns:rdf="http://www.w3.org/1999/02/22-rdf-syntax-ns#">
 <metadata id="metadata4">
  <rdf:RDF>
   <cc:Work rdf:about="">
    <dc:format>image/svg+xml</dc:format>
    <dc:type rdf:resource="http://purl.org/dc/dcmitype/StillImage"/>
    <dc:title/>
   </cc:Work>
  </rdf:RDF>
 </metadata>
 <g id="text841" transform="scale(.80455 1.2429)" fill="#00a651" stroke-width=".33352" aria-label="mask">
  <path id="path833" d="m7.2139 11.762q0.44296-0.67747 1.0488-1.0292 0.61233-0.35828 1.3419-0.35828 1.2572 0 1.9152 0.77518t0.65793 2.2539v4.4427h-2.3451v-3.8043q0.00651-0.08468 0.00651-0.17588 0.00651-0.0912 0.00651-0.26057 0-0.77518-0.228-1.1204-0.228-0.35176-0.7361-0.35176-0.66444 0-1.0292 0.54719-0.35828 0.54719-0.37131 1.5829v3.5828h-2.3451v-3.8043q0-1.2116-0.20845-1.5569-0.20845-0.35176-0.74261-0.35176-0.67096 0-1.0358 0.5537-0.36479 0.54719-0.36479 1.5699v3.5893h-2.3451v-7.2959h2.3451v1.0683q0.42993-0.61885 0.98364-0.93152 0.56022-0.31268 1.2312-0.31268 0.75564 0 1.3354 0.36479 0.57976 0.36479 0.87941 1.0227z"/>
  <path id="path835" d="m17.637 14.563q-0.72959 0-1.1009 0.24754-0.36479 0.24754-0.36479 0.72959 0 0.44296 0.29314 0.69702 0.29965 0.24754 0.8273 0.24754 0.65793 0 1.1074-0.46902 0.44948-0.47553 0.44948-1.1856v-0.26708zm3.5632-0.87941v4.1625h-2.3516v-1.0814q-0.46902 0.66444-1.0553 0.97061-0.58628 0.29965-1.4266 0.29965-1.1335 0-1.8435-0.65793-0.70353-0.66444-0.70353-1.7197 0-1.2833 0.87941-1.8826 0.88592-0.5993 2.775-0.5993h1.3745v-0.1824q0-0.5537-0.43645-0.80776-0.43645-0.26057-1.3615-0.26057-0.74913 0-1.394 0.14983t-1.1986 0.44948v-1.7784q0.74913-0.1824 1.5048-0.27359 0.75564-0.09771 1.5113-0.09771 1.9738 0 2.8467 0.7817 0.87941 0.77518 0.87941 2.5275z"/>
  <path id="path837" d="m29.082 10.778v1.7719q-0.74913-0.31268-1.4461-0.46902t-1.3159-0.15634q-0.66444 0-0.99015 0.16937-0.31919 0.16285-0.31919 0.5081 0 0.28011 0.24102 0.42993 0.24754 0.14983 0.87941 0.22148l0.41039 0.05863q1.7914 0.228 2.4102 0.74913 0.61884 0.52113 0.61884 1.6351 0 1.166-0.85987 1.7523-0.85987 0.58627-2.5666 0.58627-0.72307 0-1.4983-0.11726-0.76867-0.11074-1.5829-0.33874v-1.7719q0.69702 0.33874 1.4266 0.5081 0.7361 0.16937 1.4917 0.16937 0.68399 0 1.0292-0.18891 0.34525-0.18891 0.34525-0.56022 0-0.31268-0.24102-0.46251-0.23451-0.15634-0.94455-0.24102l-0.41039-0.05211q-1.5569-0.19542-2.1822-0.72307-0.62536-0.52765-0.62536-1.6025 0-1.1595 0.79473-1.7197 0.79473-0.56022 2.4363-0.56022 0.6449 0 1.3549 0.09771 0.71004 0.09771 1.5439 0.30616z"/>
  <path id="path839" d="m31.329 7.7103h2.3321v5.5175l2.6838-2.6773h2.7099l-3.5632 3.3483 3.8434 3.9476h-2.8271l-2.8467-3.0421v3.0421h-2.3321z"/>
 </g>
</svg>
