<?xml version="1.0" encoding="UTF-8"?>
<svg id="svg2" width="32" height="32" version="1.1" xmlns="http://www.w3.org/2000/svg" xmlns:cc="http://creativecommons.org/ns#" xmlns:dc="http://purl.org/dc/elements/1.1/" xmlns:rdf="http://www.w3.org/1999/02/22-rdf-syntax-ns#">
 <metadata id="metadata4">
  <rdf:RDF>
   <cc:Work rdf:about="">
    <dc:format>image/svg+xml</dc:format>
    <dc:type rdf:resource="http://purl.org/dc/dcmitype/StillImage"/>
    <dc:title/>
   </cc:Work>
  </rdf:RDF>
 </metadata>
 <g id="text843" fill="#00a651" stroke-width=".33307" aria-label="flat dark">
  <path id="path873" d="m7.6787 3.3301h4.3138v10.853h-2.1903v-9.2138h-1.6624q-0.46111 0-0.64313 0.1953-0.18202 0.18832-0.18202 0.66262v0.54404h1.7049v1.7856h-1.7049v6.0263h-2.1721v-6.0263h-1.08v-1.7856h1.08v-0.54404q0-1.2764 0.61886-1.8832 0.61886-0.61379 1.9173-0.61379z"/>
  <path id="path875" d="m17.138 10.668q-0.67954 0-1.0254 0.26505-0.33977 0.26505-0.33977 0.78119 0 0.47429 0.27303 0.74631 0.2791 0.26505 0.77054 0.26505 0.6128 0 1.0314-0.50219 0.41864-0.50917 0.41864-1.2694v-0.28597zm3.3188-0.94161v4.457h-2.1903v-1.1578q-0.43684 0.71144-0.9829 1.0393-0.54606 0.32085-1.3287 0.32085-1.0557 0-1.717-0.70446-0.65527-0.71144-0.65527-1.8414 0-1.3741 0.81908-2.0157 0.82515-0.64169 2.5847-0.64169h1.2802v-0.1953q0-0.59287-0.40651-0.86489-0.40651-0.279-1.2681-0.279-0.69774 0-1.2984 0.16042-0.60066 0.16042-1.1164 0.48127v-1.9041q0.69774-0.1953 1.4015-0.29295 0.7038-0.10462 1.4076-0.10462 1.8384 0 2.6514 0.83699 0.81908 0.83001 0.81908 2.7063z"/>
  <path id="path877" d="m24.861 4.1531v2.218h2.2388v1.7856h-2.2388v3.3131q0 0.54404 0.18809 0.73934 0.18809 0.18832 0.74628 0.18832h1.1164v1.7856h-1.8627q-1.2863 0-1.8263-0.61379-0.53392-0.62076-0.53392-2.0994v-3.3131h-1.08v-1.7856h1.08v-2.218z"/>
  <path id="path879" d="m5.4156 21.8v-4.1849h2.1842v10.853h-2.1842v-1.1299q-0.44898 0.69052-0.98897 1.0114-0.53999 0.32084-1.2499 0.32084-1.2559 0-2.0629-1.1439-0.80695-1.1509-0.80695-2.9574 0-1.8065 0.80695-2.9504 0.80695-1.1509 2.0629-1.1509 0.7038 0 1.2438 0.32782 0.54606 0.32084 0.99503 1.0044zm-1.4319 5.0568q0.69774 0 1.0618-0.58589 0.3701-0.58589 0.3701-1.7019 0-1.116-0.3701-1.7019-0.36404-0.58589-1.0618-0.58589-0.69167 0-1.0618 0.58589-0.36404 0.58589-0.36404 1.7019 0 1.116 0.36404 1.7019 0.3701 0.58589 1.0618 0.58589z"/>
  <path id="path881" d="m12.745 24.952q-0.67954 0-1.0254 0.26505-0.33977 0.26505-0.33977 0.78119 0 0.47429 0.27303 0.74631 0.2791 0.26505 0.77054 0.26505 0.6128 0 1.0314-0.50219 0.41864-0.50917 0.41864-1.2694v-0.28597zm3.3188-0.94161v4.457h-2.1903v-1.1578q-0.43684 0.71144-0.9829 1.0393-0.54606 0.32084-1.3287 0.32084-1.0557 0-1.717-0.70446-0.65527-0.71144-0.65527-1.8414 0-1.3741 0.81908-2.0157 0.82515-0.64169 2.5847-0.64169h1.2802v-0.1953q0-0.59287-0.40651-0.86489-0.40651-0.279-1.2681-0.279-0.69774 0-1.2984 0.16042-0.60066 0.16042-1.1164 0.48127v-1.9041q0.69774-0.1953 1.4015-0.29295 0.7038-0.10462 1.4076-0.10462 1.8384 0 2.6514 0.83699 0.81908 0.83001 0.81908 2.7063z"/>
  <path id="path883" d="m23.144 22.783q-0.28516-0.15345-0.57032-0.2232-0.2791-0.07673-0.56426-0.07673-0.83728 0-1.2923 0.62077-0.44898 0.61379-0.44898 1.7646v3.599h-2.1721v-7.8119h2.1721v1.2834q0.41864-0.76724 0.95863-1.116 0.54606-0.35572 1.3045-0.35572 0.10921 0 0.23662 0.01396 0.12741 0.0069 0.3701 0.04185z"/>
  <path id="path885" d="m24.236 17.615h2.1721v5.9077l2.4997-2.8667h2.524l-3.3188 3.5851 3.5797 4.2268h-2.6332l-2.6514-3.2573v3.2573h-2.1721z"/>
 </g>
</svg>
