<?xml version="1.0" encoding="UTF-8"?>
<!-- Created with Inkscape (http://www.inkscape.org/) -->
<svg id="svg2" width="24" height="24" version="1.1" xmlns="http://www.w3.org/2000/svg" xmlns:cc="http://creativecommons.org/ns#" xmlns:dc="http://purl.org/dc/elements/1.1/" xmlns:rdf="http://www.w3.org/1999/02/22-rdf-syntax-ns#">
 <metadata id="metadata4">
  <rdf:RDF>
   <cc:Work rdf:about="">
    <dc:format>image/svg+xml</dc:format>
    <dc:type rdf:resource="http://purl.org/dc/dcmitype/StillImage"/>
    <dc:title/>
   </cc:Work>
  </rdf:RDF>
 </metadata>
 <g id="unlock" transform="translate(-147.71 -90.752)">
  <rect id="rect3151-6-6-8-0-6" x="151.13" y="94.163" width="17.179" height="17.179" color="#000000" fill="none"/>
  <g id="g4076" transform="translate(-.0042977 .019021)" stroke="#000">
   <rect id="rect3173-9-1" x="153.66" y="103.86" width="12.122" height="6.8665" ry=".91534" color="#000000" stroke-width="1.2013"/>
   <path id="rect3175-9-7" d="m155.57 99.64c0-2.4486 1.8522-4.4198 4.153-4.4198s4.153 1.9712 4.153 4.4198v5.5674" color="#000000" fill="none" stroke-linecap="round" stroke-width="1.8285"/>
  </g>
 </g>
 <g id="text824" fill="#fff" stroke-width=".17527" aria-label="SH">
  <path id="path826" d="m10.751 14.145v1.0818q-0.42106-0.18828-0.82159-0.28413-0.40052-0.09585-0.75654-0.09585-0.47241 0-0.69835 0.13008t-0.22594 0.40395q0 0.2054 0.15062 0.32179 0.15405 0.11297 0.55457 0.19513l0.56142 0.11297q0.8524 0.17116 1.2118 0.52034 0.35944 0.34917 0.35944 0.99275 0 0.84555-0.50322 1.2598-0.4998 0.41079-1.5302 0.41079-0.4861 0-0.97563-0.09243t-0.97906-0.27386v-1.1126q0.48953 0.26017 0.94482 0.39368 0.45872 0.13008 0.8832 0.13008 0.43133 0 0.66069-0.14378t0.22936-0.41079q0-0.23963-0.15747-0.36971-0.15405-0.13008-0.61961-0.23278l-0.51007-0.11297q-0.76681-0.16432-1.1228-0.52376-0.3526-0.35944-0.3526-0.96879 0-0.76339 0.49295-1.1742 0.49295-0.41079 1.4172-0.41079 0.42106 0 0.86609 0.06504 0.44502 0.06162 0.92086 0.18828z"/>
  <path id="path828" d="m12.247 13.984h1.318v1.9478h1.9444v-1.9478h1.318v5.1109h-1.318v-2.1669h-1.9444v2.1669h-1.318z"/>
 </g>
</svg>
