<?xml version="1.0" encoding="UTF-8"?>
<svg id="svg10" version="1.1" viewBox="0 0 32 32" xml:space="preserve" xmlns="http://www.w3.org/2000/svg" xmlns:cc="http://creativecommons.org/ns#" xmlns:dc="http://purl.org/dc/elements/1.1/" xmlns:rdf="http://www.w3.org/1999/02/22-rdf-syntax-ns#"><metadata id="metadata16"><rdf:RDF><cc:Work rdf:about=""><dc:format>image/svg+xml</dc:format><dc:type rdf:resource="http://purl.org/dc/dcmitype/StillImage"/></cc:Work></rdf:RDF></metadata><path id="path2" d="m5.389 24.915c1.58-0.49852 1.812-2.5054 2.157-3.8714 0.386-1.527 1.273-1.1913 2.263-2 0.688-0.56231 0.899-1.3984 0.95-2.2698 0.042-0.72717-0.152-3.1216 0.782-3.3895 0.318-0.09028 0.664-0.1001 0.965-0.25024 0.843-0.42198 1.344-1.1001 1.679-1.9813 0.255-0.6732 0.463-1.3435 0.655-2.0353 0.03-0.10795 1.031-3.2011 1.374-2.684 1.012 1.5279 1.44 3.7683 1.949 5.4965 0.467 1.5858 0.819 3.1982 1.312 4.7781 0.223 0.71442 0.394 1.7939 1.124 2.2129 1.383 0.79587 1.77-1.6683 1.924-2.3326 0.246-1.0549 0.345-1.7772 0.732-0.3366 0.3 1.1148 0.448 2.2757 0.637 3.4121 0.226 1.3621 0.626 3.3984 1.515 4.4739 0.089 0.10795 0.305 0.16781 0.438 0.11384 0.787-0.31795 0.642-2.2816 1.354-0.85671 0.313 0.62904 0.516 1.5947 1.247 1.8763 0.54 0.20902 0.772-0.64572 0.238-0.85082-0.869-0.33562-0.671-3.2178-2.23-2.7978-0.671 0.18155-0.841 1.2806-0.97 1.786 0.32-1.2532-0.408-2.2826-0.656-3.5907-0.226-1.1923-0.218-5.1334-1.676-5.6496-0.453-0.16094-0.721 0.07556-0.967 0.43179-0.239 0.34641-0.314 0.87732-0.416 1.2708-0.056 0.21982-0.622 3.101-1.157 1.3788-1.157-3.7291-1.675-8.3276-3.87-11.643-1.414-2.1354-2.873 3.6535-2.96 3.9695-0.374 1.3523-0.894 2.6329-2.477 2.9548-0.307 0.06182-0.67 0.1894-0.897 0.41314-1.402 1.3758 0.693 4.6623-1.486 5.5416-0.974 0.39254-1.453 0.29342-1.934 1.3533-0.503 1.107-0.444 3.7831-1.834 4.2227-0.554 0.17566-0.319 1.0284 0.235 0.85278z" fill="#00a14b" stroke-width=".99063"/><g id="text825" stroke-width=".32753" aria-label="FFT"><path id="path819" d="m5.3727 15.65h5.5361v2.2349h-3.4847v2.1351h3.2769v2.2349h-3.2769v4.8615h-2.0514z"/><path id="path821" d="m12.832 15.65h5.5361v2.2349h-3.4847v2.1351h3.2769v2.2349h-3.2769v4.8615h-2.0514z"/><path id="path823" d="m19.344 15.65h7.3318v2.2349h-2.6375v9.2314h-2.0514v-9.2314h-2.6429z"/></g>
</svg>
