<?xml version="1.0" encoding="UTF-8"?>
<svg id="svg4" enable-background="new 0 0 32 32" version="1.1" viewBox="0 0 32 32" xml:space="preserve" xmlns="http://www.w3.org/2000/svg" xmlns:cc="http://creativecommons.org/ns#" xmlns:dc="http://purl.org/dc/elements/1.1/" xmlns:rdf="http://www.w3.org/1999/02/22-rdf-syntax-ns#"><metadata id="metadata10"><rdf:RDF><cc:Work rdf:about=""><dc:format>image/svg+xml</dc:format><dc:type rdf:resource="http://purl.org/dc/dcmitype/StillImage"/><dc:title/></cc:Work></rdf:RDF></metadata>

<path id="path839" d="m1.0616 31.188h0.049374c-0.013743-0.06536-0.036246-0.1278-0.049374-0.19336z" color="#000000" color-rendering="auto" dominant-baseline="auto" fill="#00a651" image-rendering="auto" shape-rendering="auto" solid-color="#000000" style="font-feature-settings:normal;font-variant-alternates:normal;font-variant-caps:normal;font-variant-ligatures:normal;font-variant-numeric:normal;font-variant-position:normal;isolation:auto;mix-blend-mode:normal;shape-padding:0;text-decoration-color:#000000;text-decoration-line:none;text-decoration-style:solid;text-indent:0;text-orientation:mixed;text-transform:none;white-space:normal"/><path id="path833" d="m13.182 26.511c0 1.6684 0.41115 3.25 1.1313 4.6777h4.083c-1.0337-1.3161-1.6465-2.9267-1.6465-4.6777 0-4.4584 3.9334-8.0371 8.8337-8.0371 1.9728-1e-6 3.7825 0.5864 5.2487 1.5703v-3.7383c-1.5974-0.68412-3.3724-1.0781-5.2487-1.0781-6.8287 0-12.402 5.0703-12.402 11.283zm-7.1764 0.10156c0 1.586 0.25593 3.1157 0.69768 4.5762h3.7181c-0.54094-1.4353-0.84795-2.9706-0.84795-4.5762-1.1e-6 -7.7836 6.8969-14.059 15.452-14.059 2.0571 0 4.0143 0.36993 5.8068 1.0293v-3.4434c-1.8323-0.53644-3.7817-0.83203-5.8068-0.83203-10.483 0-19.02 7.7666-19.02 17.305zm-4.9439-3.8398c2.1222-10.597 12.291-18.609 24.56-18.609 1.7878 0 3.5296 0.17272 5.2101 0.49609v-3.3027c-1.6904-0.28478-3.4301-0.43945-5.2101-0.43945-10.441 0-19.584 5.1249-24.56 12.754z" color="#000000" color-rendering="auto" dominant-baseline="auto" fill="#00a651" fill-opacity=".50196" image-rendering="auto" shape-rendering="auto" solid-color="#000000" style="font-feature-settings:normal;font-variant-alternates:normal;font-variant-caps:normal;font-variant-ligatures:normal;font-variant-numeric:normal;font-variant-position:normal;isolation:auto;mix-blend-mode:normal;shape-padding:0;text-decoration-color:#000000;text-decoration-line:none;text-decoration-style:solid;text-indent:0;text-orientation:mixed;text-transform:none;white-space:normal"/><path id="line2" d="m4.014 4.5313 19.04 19.096" fill="#f7941e" stroke="#f7941e" stroke-miterlimit="10" stroke-width="3.202"/></svg>
