<?xml version="1.0" encoding="UTF-8"?>
<svg version="1.1" xmlns="http://www.w3.org/2000/svg" width="591" height="591">
<path d="M0 0 C8.77189151 -0.09324882 17.54360879 -0.16404022 26.31589031 -0.20724869 C30.39054228 -0.22800111 34.46485172 -0.25608837 38.53930664 -0.30175781 C42.48158377 -0.3456622 46.42353436 -0.36922956 50.36603737 -0.37950897 C51.85974064 -0.38682134 53.35342885 -0.40109716 54.84699059 -0.42292023 C71.05100982 -0.64996872 84.77515525 2.93377171 96.75 14.25 C108.38794216 26.56528271 111.63075428 40.04095395 111.47045898 56.54077148 C110.984053 72.3457234 105.05679807 85.00990901 93.5234375 95.9921875 C81.63895436 105.44826232 69.21753885 106.29654238 54.6875 106.1953125 C53.10709818 106.19157696 51.52669403 106.18873255 49.94628906 106.18673706 C45.81005326 106.17914315 41.6739605 106.15953168 37.53778076 106.1373291 C33.30775893 106.11677872 29.07771373 106.10771578 24.84765625 106.09765625 C16.56503892 106.0762813 8.28253731 106.04219731 0 106 C-2.73034208 99.37392593 -4.08415081 92.17604581 -3 85 C0.44450737 82.70366176 2.93812283 82.45983515 7 82 C8.64851703 75.71953787 9.29730103 69.88012628 9.265625 63.3984375 C9.26753845 62.5177359 9.2694519 61.6370343 9.27142334 60.72964478 C9.27277465 58.88258577 9.26915253 57.03551692 9.26074219 55.18847656 C9.25000165 52.37543306 9.26068669 49.56302431 9.2734375 46.75 C9.27211622 44.9453111 9.26955448 43.1406226 9.265625 41.3359375 C9.26967346 40.50347504 9.27372192 39.67101257 9.27789307 38.81332397 C9.23830039 33.8439374 8.73410161 29.67786519 7 25 C4.93346065 23.37059817 4.93346065 23.37059817 2.4375 22.625 C1.63183594 22.32851563 0.82617188 22.03203125 -0.00390625 21.7265625 C-0.99197266 21.36691406 -0.99197266 21.36691406 -2 21 C-3 20 -3 20 -3.25 16.6875 C-3.22390287 12.84382842 -2.45036631 9.42101363 -1.484375 5.70703125 C-1.20819336 4.63557861 -0.93201172 3.56412598 -0.64746094 2.46020508 C-0.43379883 1.6483374 -0.22013672 0.83646973 0 0 Z M50 18 C49.97669324 25.63304264 49.95899237 33.26608153 49.94818783 40.8991518 C49.94299874 44.44458091 49.93597448 47.98998543 49.92456055 51.53540039 C49.91148272 55.6238629 49.90673897 59.71230012 49.90234375 63.80078125 C49.89718246 65.05643387 49.89202118 66.31208649 49.88670349 67.60578918 C49.88625109 74.79572229 50.19318363 81.85403471 51 89 C54.59185823 90.12392938 56.79638207 89.84616017 60.26171875 88.19140625 C66.71932577 83.76540593 68.52082667 75.22002085 70 68 C72.59560614 52.8295641 71.86674044 34.98798609 62.9375 22 C60.79004898 19.78327637 59.1218767 18.10725399 55.95703125 17.8046875 C55.24933594 17.82789063 54.54164063 17.85109375 53.8125 17.875 C52.554375 17.91625 51.29625 17.9575 50 18 Z " fill="#487464" transform="translate(263,245)"/>
<path d="M0 0 C8.77189151 -0.09324882 17.54360879 -0.16404022 26.31589031 -0.20724869 C30.39054228 -0.22800111 34.46485172 -0.25608837 38.53930664 -0.30175781 C42.48158377 -0.3456622 46.42353436 -0.36922956 50.36603737 -0.37950897 C51.85974064 -0.38682134 53.35342885 -0.40109716 54.84699059 -0.42292023 C71.05100982 -0.64996872 84.77515525 2.93377171 96.75 14.25 C108.38794216 26.56528271 111.63075428 40.04095395 111.47045898 56.54077148 C110.984053 72.3457234 105.05679807 85.00990901 93.5234375 95.9921875 C81.63895436 105.44826232 69.21753885 106.29654238 54.6875 106.1953125 C53.10709818 106.19157696 51.52669403 106.18873255 49.94628906 106.18673706 C45.81005326 106.17914315 41.6739605 106.15953168 37.53778076 106.1373291 C33.30775893 106.11677872 29.07771373 106.10771578 24.84765625 106.09765625 C16.56503892 106.0762813 8.28253731 106.04219731 0 106 C-2.73034208 99.37392593 -4.08415081 92.17604581 -3 85 C0.44450737 82.70366176 2.93812283 82.45983515 7 82 C8.64851703 75.71953787 9.29730103 69.88012628 9.265625 63.3984375 C9.26753845 62.5177359 9.2694519 61.6370343 9.27142334 60.72964478 C9.27277465 58.88258577 9.26915253 57.03551692 9.26074219 55.18847656 C9.25000165 52.37543306 9.26068669 49.56302431 9.2734375 46.75 C9.27211622 44.9453111 9.26955448 43.1406226 9.265625 41.3359375 C9.26967346 40.50347504 9.27372192 39.67101257 9.27789307 38.81332397 C9.23830039 33.8439374 8.73410161 29.67786519 7 25 C4.93346065 23.37059817 4.93346065 23.37059817 2.4375 22.625 C1.63183594 22.32851563 0.82617188 22.03203125 -0.00390625 21.7265625 C-0.99197266 21.36691406 -0.99197266 21.36691406 -2 21 C-3 20 -3 20 -3.25 16.6875 C-3.22390287 12.84382842 -2.45036631 9.42101363 -1.484375 5.70703125 C-1.20819336 4.63557861 -0.93201172 3.56412598 -0.64746094 2.46020508 C-0.43379883 1.6483374 -0.22013672 0.83646973 0 0 Z M50 18 C49.97669324 25.63304264 49.95899237 33.26608153 49.94818783 40.8991518 C49.94299874 44.44458091 49.93597448 47.98998543 49.92456055 51.53540039 C49.91148272 55.6238629 49.90673897 59.71230012 49.90234375 63.80078125 C49.89718246 65.05643387 49.89202118 66.31208649 49.88670349 67.60578918 C49.88625109 74.79572229 50.19318363 81.85403471 51 89 C54.59185823 90.12392938 56.79638207 89.84616017 60.26171875 88.19140625 C66.71932577 83.76540593 68.52082667 75.22002085 70 68 C72.59560614 52.8295641 71.86674044 34.98798609 62.9375 22 C60.79004898 19.78327637 59.1218767 18.10725399 55.95703125 17.8046875 C55.24933594 17.82789063 54.54164062 17.85109375 53.8125 17.875 C52.554375 17.91625 51.29625 17.9575 50 18 Z " fill="#487464" transform="translate(10,245)"/>
<path d="M0 0 C1.05654785 -0.00056396 2.1130957 -0.00112793 3.20166016 -0.00170898 C12.12648835 0.1233288 20.28756891 1.33128446 28.375 5.375 C29.035 4.055 29.695 2.735 30.375 1.375 C35.985 1.375 41.595 1.375 47.375 1.375 C54.35902948 22.32708845 54.35902948 22.32708845 53.375 28.375 C48.77825246 32.75426701 43.45273137 32.95107854 37.37109375 32.921875 C32.98651689 32.1215611 31.61805855 29.97702094 29.09765625 26.484375 C25.63768939 22.24768089 20.47755003 20.07585001 15.375 18.375 C12.71652131 18.25273841 10.09576362 18.18987982 7.4375 18.1875 C6.36338867 18.16913086 6.36338867 18.16913086 5.26757812 18.15039062 C1.47526892 18.13984667 -1.41099094 18.25190785 -4.625 20.375 C-4.50322312 22.28966367 -4.50322312 22.28966367 -3.625 24.375 C0.18580455 27.07668979 4.25632179 28.48173775 8.6875 29.8125 C9.38246582 30.02712891 10.07743164 30.24175781 10.79345703 30.46289062 C15.06722335 31.75837904 19.35778449 32.87908863 23.70556641 33.89575195 C35.65780723 36.69754903 47.21382484 41.07277552 54.01171875 52.0078125 C59.19786873 62.20179211 60.12537578 72.83202443 56.75 83.8125 C52.95551099 93.67552719 46.28666881 100.98087692 36.75 105.6640625 C22.09783574 111.72552331 2.32307476 111.96672943 -12.5 106.34765625 C-13.88586263 105.71331839 -15.26176862 105.05661569 -16.625 104.375 C-16.955 105.695 -17.285 107.015 -17.625 108.375 C-23.235 108.375 -28.845 108.375 -34.625 108.375 C-42.63682079 86.10360826 -42.63682079 86.10360826 -41.625 79.375 C-38.1255594 75.40266202 -34.66870624 74.13873278 -29.5 73.75 C-25.95196537 73.76840744 -24.2589946 73.82783768 -21.54296875 76.171875 C-20.27824675 77.75876829 -19.03279569 79.36116708 -17.8046875 80.9765625 C-13.01393381 86.24810867 -4.57846139 90.16615622 2.5546875 90.54296875 C4.38386719 90.55263672 4.38386719 90.55263672 6.25 90.5625 C7.46429688 90.57667969 8.67859375 90.59085938 9.9296875 90.60546875 C13.2510591 90.38329083 15.45488109 89.9399256 18.375 88.375 C19.62653259 86.03404469 19.62653259 86.03404469 19.375 83.375 C13.27986801 76.02958452 2.26578673 74.30750051 -6.55981445 71.83349609 C-32.48383865 64.55246994 -32.48383865 64.55246994 -39.625 53.375 C-44.7094911 43.69025505 -45.09622102 33.56406672 -42.125 23.125 C-38.37604182 13.25795036 -32.117603 8.03383649 -22.75 3.56640625 C-15.05472165 0.63258138 -8.18147389 -0.01096712 0 0 Z " fill="#487464" transform="translate(394.625,444.625)"/>
<path d="M0 0 C1.05654785 -0.00056396 2.1130957 -0.00112793 3.20166016 -0.00170898 C12.12648835 0.1233288 20.28756891 1.33128446 28.375 5.375 C29.035 4.055 29.695 2.735 30.375 1.375 C35.985 1.375 41.595 1.375 47.375 1.375 C54.35902948 22.32708845 54.35902948 22.32708845 53.375 28.375 C48.77825246 32.75426701 43.45273137 32.95107854 37.37109375 32.921875 C32.98651689 32.1215611 31.61805855 29.97702094 29.09765625 26.484375 C25.63768939 22.24768089 20.47755003 20.07585001 15.375 18.375 C12.71652131 18.25273841 10.09576362 18.18987982 7.4375 18.1875 C6.36338867 18.16913086 6.36338867 18.16913086 5.26757812 18.15039062 C1.47526892 18.13984667 -1.41099094 18.25190785 -4.625 20.375 C-4.50322312 22.28966367 -4.50322312 22.28966367 -3.625 24.375 C0.18580455 27.07668979 4.25632179 28.48173775 8.6875 29.8125 C9.38246582 30.02712891 10.07743164 30.24175781 10.79345703 30.46289062 C15.06722335 31.75837904 19.35778449 32.87908863 23.70556641 33.89575195 C35.65780723 36.69754903 47.21382484 41.07277552 54.01171875 52.0078125 C59.19786873 62.20179211 60.12537578 72.83202443 56.75 83.8125 C52.95551099 93.67552719 46.28666881 100.98087692 36.75 105.6640625 C22.09783574 111.72552331 2.32307476 111.96672943 -12.5 106.34765625 C-13.88586263 105.71331839 -15.26176862 105.05661569 -16.625 104.375 C-16.955 105.695 -17.285 107.015 -17.625 108.375 C-23.235 108.375 -28.845 108.375 -34.625 108.375 C-42.63682079 86.10360826 -42.63682079 86.10360826 -41.625 79.375 C-38.1255594 75.40266202 -34.66870624 74.13873278 -29.5 73.75 C-25.95196537 73.76840744 -24.2589946 73.82783768 -21.54296875 76.171875 C-20.27824675 77.75876829 -19.03279569 79.36116708 -17.8046875 80.9765625 C-13.01393381 86.24810867 -4.57846139 90.16615622 2.5546875 90.54296875 C4.38386719 90.55263672 4.38386719 90.55263672 6.25 90.5625 C7.46429688 90.57667969 8.67859375 90.59085938 9.9296875 90.60546875 C13.2510591 90.38329083 15.45488109 89.9399256 18.375 88.375 C19.62653259 86.03404469 19.62653259 86.03404469 19.375 83.375 C13.27986801 76.02958452 2.26578673 74.30750051 -6.55981445 71.83349609 C-32.48383865 64.55246994 -32.48383865 64.55246994 -39.625 53.375 C-44.7094911 43.69025505 -45.09622102 33.56406672 -42.125 23.125 C-38.37604182 13.25795036 -32.117603 8.03383649 -22.75 3.56640625 C-15.05472165 0.63258138 -8.18147389 -0.01096712 0 0 Z " fill="#487464" transform="translate(288.625,444.625)"/>
<path d="M0 0 C1.05654785 -0.00056396 2.1130957 -0.00112793 3.20166016 -0.00170898 C12.12648835 0.1233288 20.28756891 1.33128446 28.375 5.375 C29.035 4.055 29.695 2.735 30.375 1.375 C35.985 1.375 41.595 1.375 47.375 1.375 C54.35902948 22.32708845 54.35902948 22.32708845 53.375 28.375 C48.77825246 32.75426701 43.45273137 32.95107854 37.37109375 32.921875 C32.98651689 32.1215611 31.61805855 29.97702094 29.09765625 26.484375 C25.63768939 22.24768089 20.47755003 20.07585001 15.375 18.375 C12.71652131 18.25273841 10.09576362 18.18987982 7.4375 18.1875 C6.36338867 18.16913086 6.36338867 18.16913086 5.26757812 18.15039062 C1.47526892 18.13984667 -1.41099094 18.25190785 -4.625 20.375 C-4.50322312 22.28966367 -4.50322312 22.28966367 -3.625 24.375 C0.18580455 27.07668979 4.25632179 28.48173775 8.6875 29.8125 C9.38246582 30.02712891 10.07743164 30.24175781 10.79345703 30.46289062 C15.06722335 31.75837904 19.35778449 32.87908863 23.70556641 33.89575195 C35.65780723 36.69754903 47.21382484 41.07277552 54.01171875 52.0078125 C59.19786873 62.20179211 60.12537578 72.83202443 56.75 83.8125 C52.95551099 93.67552719 46.28666881 100.98087692 36.75 105.6640625 C22.09783574 111.72552331 2.32307476 111.96672943 -12.5 106.34765625 C-13.88586263 105.71331839 -15.26176862 105.05661569 -16.625 104.375 C-16.955 105.695 -17.285 107.015 -17.625 108.375 C-23.235 108.375 -28.845 108.375 -34.625 108.375 C-42.63682079 86.10360826 -42.63682079 86.10360826 -41.625 79.375 C-38.1255594 75.40266202 -34.66870624 74.13873278 -29.5 73.75 C-25.95196537 73.76840744 -24.2589946 73.82783768 -21.54296875 76.171875 C-20.27824675 77.75876829 -19.03279569 79.36116708 -17.8046875 80.9765625 C-13.01393381 86.24810867 -4.57846139 90.16615622 2.5546875 90.54296875 C4.38386719 90.55263672 4.38386719 90.55263672 6.25 90.5625 C7.46429687 90.57667969 8.67859375 90.59085937 9.9296875 90.60546875 C13.2510591 90.38329083 15.45488109 89.9399256 18.375 88.375 C19.62653259 86.03404469 19.62653259 86.03404469 19.375 83.375 C13.27986801 76.02958452 2.26578673 74.30750051 -6.55981445 71.83349609 C-32.48383865 64.55246994 -32.48383865 64.55246994 -39.625 53.375 C-44.7094911 43.69025505 -45.09622102 33.56406672 -42.125 23.125 C-38.37604182 13.25795036 -32.117603 8.03383649 -22.75 3.56640625 C-15.05472165 0.63258138 -8.18147389 -0.01096712 0 0 Z " fill="#487464" transform="translate(528.625,242.625)"/>
<path d="M0 0 C1.05654785 -0.00056396 2.1130957 -0.00112793 3.20166016 -0.00170898 C12.12648835 0.1233288 20.28756891 1.33128446 28.375 5.375 C29.035 4.055 29.695 2.735 30.375 1.375 C35.985 1.375 41.595 1.375 47.375 1.375 C54.35902948 22.32708845 54.35902948 22.32708845 53.375 28.375 C48.77825246 32.75426701 43.45273137 32.95107854 37.37109375 32.921875 C32.98651689 32.1215611 31.61805855 29.97702094 29.09765625 26.484375 C25.63768939 22.24768089 20.47755003 20.07585001 15.375 18.375 C12.71652131 18.25273841 10.09576362 18.18987982 7.4375 18.1875 C6.36338867 18.16913086 6.36338867 18.16913086 5.26757812 18.15039062 C1.47526892 18.13984667 -1.41099094 18.25190785 -4.625 20.375 C-4.50322312 22.28966367 -4.50322312 22.28966367 -3.625 24.375 C0.18580455 27.07668979 4.25632179 28.48173775 8.6875 29.8125 C9.38246582 30.02712891 10.07743164 30.24175781 10.79345703 30.46289062 C15.06722335 31.75837904 19.35778449 32.87908863 23.70556641 33.89575195 C35.65780723 36.69754903 47.21382484 41.07277552 54.01171875 52.0078125 C59.19786873 62.20179211 60.12537578 72.83202443 56.75 83.8125 C52.95551099 93.67552719 46.28666881 100.98087692 36.75 105.6640625 C22.09783574 111.72552331 2.32307476 111.96672943 -12.5 106.34765625 C-13.88586263 105.71331839 -15.26176862 105.05661569 -16.625 104.375 C-16.955 105.695 -17.285 107.015 -17.625 108.375 C-23.235 108.375 -28.845 108.375 -34.625 108.375 C-42.63682079 86.10360826 -42.63682079 86.10360826 -41.625 79.375 C-38.1255594 75.40266202 -34.66870624 74.13873278 -29.5 73.75 C-25.95196537 73.76840744 -24.2589946 73.82783768 -21.54296875 76.171875 C-20.27824675 77.75876829 -19.03279569 79.36116708 -17.8046875 80.9765625 C-13.01393381 86.24810867 -4.57846139 90.16615622 2.5546875 90.54296875 C4.38386719 90.55263672 4.38386719 90.55263672 6.25 90.5625 C7.46429688 90.57667969 8.67859375 90.59085937 9.9296875 90.60546875 C13.2510591 90.38329083 15.45488109 89.9399256 18.375 88.375 C19.62653259 86.03404469 19.62653259 86.03404469 19.375 83.375 C13.27986801 76.02958452 2.26578673 74.30750051 -6.55981445 71.83349609 C-32.48383865 64.55246994 -32.48383865 64.55246994 -39.625 53.375 C-44.7094911 43.69025505 -45.09622102 33.56406672 -42.125 23.125 C-38.37604182 13.25795036 -32.117603 8.03383649 -22.75 3.56640625 C-15.05472165 0.63258138 -8.18147389 -0.01096712 0 0 Z " fill="#487464" transform="translate(180.625,40.625)"/>
<path d="M0 0 C10.38833778 -0.06972357 20.77661924 -0.12292438 31.16514397 -0.15543652 C35.98973777 -0.17104617 40.81417066 -0.19219796 45.63867188 -0.22631836 C50.30062553 -0.25908023 54.96242506 -0.27688831 59.62448502 -0.28463173 C61.39695789 -0.29014517 63.16942299 -0.30091111 64.94182968 -0.31719017 C78.51986673 -0.4368624 89.77137713 0.48379757 101 9 C106.36263978 14.46311078 108.05764908 20.76254136 108.3125 28.3125 C108.09938081 37.46408872 105.63145845 45.48093915 99 52 C95.85029584 54.46498587 92.60810258 56.28475573 89 58 C88.13503906 58.41507813 87.27007812 58.83015625 86.37890625 59.2578125 C74.87937915 63.72031555 62.11280228 62.35262889 50 62 C50.25707735 64.37720939 50.53017068 66.75076606 50.8125 69.125 C50.88275391 69.79015625 50.95300781 70.4553125 51.02539062 71.140625 C51.57667121 75.63907456 52.57656481 79.15908384 55 83 C56.74701238 84.30849363 56.74701238 84.30849363 58.6875 84.875 C60.3271875 85.431875 60.3271875 85.431875 62 86 C62.08246447 87.83254385 62.1398399 89.66622088 62.1875 91.5 C62.23970703 93.03140625 62.23970703 93.03140625 62.29296875 94.59375 C62 98 62 98 59 106 C39.53 106 20.06 106 0 106 C-2.87765763 98.80585591 -3.1358729 92.63907652 -3 85 C-2.30132812 84.72027344 -1.60265625 84.44054687 -0.8828125 84.15234375 C0.02726563 83.75144531 0.93734375 83.35054688 1.875 82.9375 C2.77992188 82.55464844 3.68484375 82.17179687 4.6171875 81.77734375 C7.8227845 79.38628369 8.31514303 76.77977453 9 73 C9.26745305 69.77659597 9.2807792 66.57302179 9.265625 63.33984375 C9.26753845 62.43174454 9.2694519 61.52364532 9.27142334 60.58802795 C9.27277815 58.67774171 9.26913117 56.76744604 9.26074219 54.85717773 C9.25002018 51.94298546 9.26066789 49.02940783 9.2734375 46.11523438 C9.27211602 44.25260281 9.26955387 42.38997164 9.265625 40.52734375 C9.26967346 39.66157211 9.27372192 38.79580048 9.27789307 37.90379333 C9.24193976 33.23977034 8.94239986 29.33461415 7 25 C4.91059362 23.5152574 4.91059362 23.5152574 2.4375 22.75 C-1.91976517 21.16046967 -1.91976517 21.16046967 -3 19 C-2.96255139 16.91440031 -2.84657615 14.82986135 -2.6875 12.75 C-2.60886719 11.63109375 -2.53023437 10.5121875 -2.44921875 9.359375 C-2.00236171 6.01766146 -1.1056641 3.17395863 0 0 Z M52.25 13.75 C48.94260629 19.70330868 49.81606021 26.51013025 49.8125 33.125 C49.80025391 34.33027344 49.78800781 35.53554687 49.77539062 36.77734375 C49.77345703 37.92589844 49.77152344 39.07445313 49.76953125 40.2578125 C49.76542236 41.3111377 49.76131348 42.36446289 49.75708008 43.44970703 C49.74278451 46.16736518 49.74278451 46.16736518 52 48 C55.01521904 48.32076798 57.10961603 48.54059027 59.75 46.9375 C63.37217162 41.32313399 63.33785475 34.89281923 63.3125 28.4375 C63.32861328 27.61314453 63.34472656 26.78878906 63.36132812 25.93945312 C63.36538673 20.86213881 62.76042341 17.42366587 60 13 C58.95137906 11.74843946 58.95137906 11.74843946 56.625 11.6875 C53.90195691 11.73721665 53.90195691 11.73721665 52.25 13.75 Z " fill="#487464" transform="translate(248,43)"/>
<path d="M0 0 C28.38 0 56.76 0 86 0 C90.1671964 8.33439279 95.07248751 18.32168456 93 28 C90.53769997 31.17716133 87.671834 32.4093475 83.875 33.5 C81.53125 33.69921875 81.53125 33.69921875 79 33 C76.41116444 30.69113682 74.22245183 28.37775932 72.06982422 25.671875 C68.42679428 21.1163724 64.57333634 17.57356924 58.56640625 16.609375 C57.90511719 16.65578125 57.24382812 16.7021875 56.5625 16.75 C55.386875 16.8325 54.21125 16.915 53 17 C50.93810069 22.91781337 50.75832162 28.20418214 50.875 34.4375 C50.88402344 35.35982422 50.89304688 36.28214844 50.90234375 37.23242188 C50.9257234 39.48855809 50.95849084 41.74413684 51 44 C51.62648437 43.57847656 52.25296875 43.15695312 52.8984375 42.72265625 C53.71570313 42.17480469 54.53296875 41.62695312 55.375 41.0625 C56.18710938 40.51722656 56.99921875 39.97195313 57.8359375 39.41015625 C62.93267671 36.08899586 68.04670463 36.33938628 74 37 C77.15504517 38.22962787 77.80550519 39.1702567 80 42 C81.72422283 46.2251226 82.21624975 49.750557 81.4375 54.25 C79.43830423 58.07454843 76.89905317 61.05047341 73 63 C68.71078456 63.61274506 66.47967057 62.85977659 63 60.5 C59.53232032 58.15499822 57.27635154 57.28727474 53 58 C50.3767707 60.6232293 50.74262712 61.7997957 50.734375 65.453125 C50.73179687 66.54753906 50.72921875 67.64195312 50.7265625 68.76953125 C50.73816406 70.49236328 50.73816406 70.49236328 50.75 72.25 C50.74226563 73.38308594 50.73453125 74.51617188 50.7265625 75.68359375 C50.73042969 77.33294922 50.73042969 77.33294922 50.734375 79.015625 C50.73663086 80.01883789 50.73888672 81.02205078 50.74121094 82.05566406 C51.02511802 85.28577674 51.86609259 87.97211815 53 91 C59.04946808 90.73113475 63.32169768 90.1697912 68 86 C73.52333785 79.32911935 77.33877316 71.80525282 81 64 C86.81493527 63.65110388 90.91581554 63.77588302 96 67 C98 69 98 69 98.27441406 70.82788086 C98.25095907 76.69749167 97.31564835 81.91792568 95.75 87.5625 C95.54503906 88.36107422 95.34007812 89.15964844 95.12890625 89.98242188 C91.8588263 102.1411737 91.8588263 102.1411737 88 106 C85.2611158 106.09516211 82.54752059 106.12554594 79.80834961 106.11352539 C78.94988937 106.11367142 78.09142914 106.11381744 77.20695496 106.1139679 C74.35539262 106.11326847 71.50389475 106.1054747 68.65234375 106.09765625 C66.68079158 106.09579218 64.70923895 106.09436822 62.73768616 106.09336853 C57.53773733 106.08954251 52.33781625 106.07971152 47.13787842 106.06866455 C41.83606339 106.05845222 36.5342439 106.05387129 31.23242188 106.04882812 C20.82160237 106.03808933 10.41080349 106.02101191 0 106 C-2.73034208 99.37392593 -4.08415081 92.17604581 -3 85 C-0 83 -0 83 3.0625 82.0625 C6.27630502 81.2287898 6.27630502 81.2287898 8 78 C9.35195936 73.35381469 9.16168064 68.58674833 9.16796875 63.7890625 C9.17129715 62.90270111 9.17462555 62.01633972 9.17805481 61.1031189 C9.18310611 59.23216265 9.18546369 57.36119744 9.18530273 55.49023438 C9.18748714 52.64177462 9.2056562 49.79370371 9.22460938 46.9453125 C9.22754417 45.12239715 9.22952839 43.29947997 9.23046875 41.4765625 C9.23765427 40.63155182 9.24483978 39.78654114 9.25224304 38.91592407 C9.23306744 33.9037163 8.75796864 29.71566838 7 25 C4.9301673 23.40523651 4.9301673 23.40523651 2.4375 22.6875 C-1.92808552 21.14382896 -1.92808552 21.14382896 -3 19 C-2.96255139 16.91440031 -2.84657615 14.82986135 -2.6875 12.75 C-2.60886719 11.63109375 -2.53023437 10.5121875 -2.44921875 9.359375 C-2 6 -2 6 0 0 Z " fill="#487464" transform="translate(144,447)"/>
<path d="M0 0 C28.38 0 56.76 0 86 0 C90.1671964 8.33439279 95.07248751 18.32168456 93 28 C90.53769997 31.17716133 87.671834 32.4093475 83.875 33.5 C81.53125 33.69921875 81.53125 33.69921875 79 33 C76.41116444 30.69113682 74.22245183 28.37775932 72.06982422 25.671875 C68.42679428 21.1163724 64.57333634 17.57356924 58.56640625 16.609375 C57.90511719 16.65578125 57.24382812 16.7021875 56.5625 16.75 C55.386875 16.8325 54.21125 16.915 53 17 C50.93810069 22.91781337 50.75832162 28.20418214 50.875 34.4375 C50.88402344 35.35982422 50.89304687 36.28214844 50.90234375 37.23242188 C50.9257234 39.48855809 50.95849084 41.74413684 51 44 C51.62648438 43.57847656 52.25296875 43.15695312 52.8984375 42.72265625 C53.71570313 42.17480469 54.53296875 41.62695312 55.375 41.0625 C56.18710937 40.51722656 56.99921875 39.97195313 57.8359375 39.41015625 C62.93267671 36.08899586 68.04670463 36.33938628 74 37 C77.15504517 38.22962787 77.80550519 39.1702567 80 42 C81.72422283 46.2251226 82.21624975 49.750557 81.4375 54.25 C79.43830423 58.07454843 76.89905317 61.05047341 73 63 C68.71078456 63.61274506 66.47967057 62.85977659 63 60.5 C59.53232032 58.15499822 57.27635154 57.28727474 53 58 C50.3767707 60.6232293 50.74262712 61.7997957 50.734375 65.453125 C50.73179687 66.54753906 50.72921875 67.64195312 50.7265625 68.76953125 C50.73816406 70.49236328 50.73816406 70.49236328 50.75 72.25 C50.74226563 73.38308594 50.73453125 74.51617187 50.7265625 75.68359375 C50.73042969 77.33294922 50.73042969 77.33294922 50.734375 79.015625 C50.73663086 80.01883789 50.73888672 81.02205078 50.74121094 82.05566406 C51.02511802 85.28577674 51.86609259 87.97211815 53 91 C59.04946808 90.73113475 63.32169768 90.1697912 68 86 C73.52333785 79.32911935 77.33877316 71.80525282 81 64 C86.81493527 63.65110388 90.91581554 63.77588302 96 67 C98 69 98 69 98.27441406 70.82788086 C98.25095907 76.69749167 97.31564835 81.91792568 95.75 87.5625 C95.54503906 88.36107422 95.34007812 89.15964844 95.12890625 89.98242188 C91.8588263 102.1411737 91.8588263 102.1411737 88 106 C85.2611158 106.09516211 82.54752059 106.12554594 79.80834961 106.11352539 C78.94988937 106.11367142 78.09142914 106.11381744 77.20695496 106.1139679 C74.35539262 106.11326847 71.50389475 106.1054747 68.65234375 106.09765625 C66.68079158 106.09579218 64.70923895 106.09436822 62.73768616 106.09336853 C57.53773733 106.08954251 52.33781625 106.07971152 47.13787842 106.06866455 C41.83606339 106.05845222 36.5342439 106.05387129 31.23242188 106.04882812 C20.82160237 106.03808933 10.41080349 106.02101191 0 106 C-2.73034208 99.37392593 -4.08415081 92.17604581 -3 85 C0 83 0 83 3.0625 82.0625 C6.27630502 81.2287898 6.27630502 81.2287898 8 78 C9.35195936 73.35381469 9.16168064 68.58674833 9.16796875 63.7890625 C9.17129715 62.90270111 9.17462555 62.01633972 9.17805481 61.1031189 C9.18310611 59.23216265 9.18546369 57.36119744 9.18530273 55.49023438 C9.18748714 52.64177462 9.2056562 49.79370371 9.22460938 46.9453125 C9.22754417 45.12239715 9.22952839 43.29947997 9.23046875 41.4765625 C9.23765427 40.63155182 9.24483978 39.78654114 9.25224304 38.91592407 C9.23306744 33.9037163 8.75796864 29.71566838 7 25 C4.9301673 23.40523651 4.9301673 23.40523651 2.4375 22.6875 C-1.92808552 21.14382896 -1.92808552 21.14382896 -3 19 C-2.96255139 16.91440031 -2.84657615 14.82986135 -2.6875 12.75 C-2.60886719 11.63109375 -2.53023438 10.5121875 -2.44921875 9.359375 C-2 6 -2 6 0 0 Z " fill="#487464" transform="translate(384,245)"/>
<path d="M0 0 C28.38 0 56.76 0 86 0 C90.1671964 8.33439279 95.07248751 18.32168456 93 28 C90.53769997 31.17716133 87.671834 32.4093475 83.875 33.5 C81.53125 33.69921875 81.53125 33.69921875 79 33 C76.41116444 30.69113682 74.22245183 28.37775932 72.06982422 25.671875 C68.42679428 21.1163724 64.57333634 17.57356924 58.56640625 16.609375 C57.90511719 16.65578125 57.24382812 16.7021875 56.5625 16.75 C55.386875 16.8325 54.21125 16.915 53 17 C50.93810069 22.91781337 50.75832162 28.20418214 50.875 34.4375 C50.88402344 35.35982422 50.89304688 36.28214844 50.90234375 37.23242188 C50.9257234 39.48855809 50.95849084 41.74413684 51 44 C51.62648437 43.57847656 52.25296875 43.15695313 52.8984375 42.72265625 C53.71570313 42.17480469 54.53296875 41.62695312 55.375 41.0625 C56.18710938 40.51722656 56.99921875 39.97195312 57.8359375 39.41015625 C62.93267671 36.08899586 68.04670463 36.33938628 74 37 C77.15504517 38.22962787 77.80550519 39.1702567 80 42 C81.72422283 46.2251226 82.21624975 49.750557 81.4375 54.25 C79.43830423 58.07454843 76.89905317 61.05047341 73 63 C68.71078456 63.61274506 66.47967057 62.85977659 63 60.5 C59.53232032 58.15499822 57.27635154 57.28727474 53 58 C50.3767707 60.6232293 50.74262712 61.7997957 50.734375 65.453125 C50.73179688 66.54753906 50.72921875 67.64195313 50.7265625 68.76953125 C50.73816406 70.49236328 50.73816406 70.49236328 50.75 72.25 C50.74226563 73.38308594 50.73453125 74.51617187 50.7265625 75.68359375 C50.73042969 77.33294922 50.73042969 77.33294922 50.734375 79.015625 C50.73663086 80.01883789 50.73888672 81.02205078 50.74121094 82.05566406 C51.02511802 85.28577674 51.86609259 87.97211815 53 91 C59.04946808 90.73113475 63.32169768 90.1697912 68 86 C73.52333785 79.32911935 77.33877316 71.80525282 81 64 C86.81493527 63.65110388 90.91581554 63.77588302 96 67 C98 69 98 69 98.27441406 70.82788086 C98.25095907 76.69749167 97.31564835 81.91792568 95.75 87.5625 C95.54503906 88.36107422 95.34007812 89.15964844 95.12890625 89.98242188 C91.8588263 102.1411737 91.8588263 102.1411737 88 106 C85.2611158 106.09516211 82.54752059 106.12554594 79.80834961 106.11352539 C78.94988937 106.11367142 78.09142914 106.11381744 77.20695496 106.1139679 C74.35539262 106.11326847 71.50389475 106.1054747 68.65234375 106.09765625 C66.68079158 106.09579218 64.70923895 106.09436822 62.73768616 106.09336853 C57.53773733 106.08954251 52.33781625 106.07971152 47.13787842 106.06866455 C41.83606339 106.05845222 36.5342439 106.05387129 31.23242188 106.04882812 C20.82160237 106.03808933 10.41080349 106.02101191 0 106 C-2.73034208 99.37392593 -4.08415081 92.17604581 -3 85 C-0 83 -0 83 3.0625 82.0625 C6.27630502 81.2287898 6.27630502 81.2287898 8 78 C9.35195936 73.35381469 9.16168064 68.58674833 9.16796875 63.7890625 C9.17129715 62.90270111 9.17462555 62.01633972 9.17805481 61.1031189 C9.18310611 59.23216265 9.18546369 57.36119744 9.18530273 55.49023438 C9.18748714 52.64177462 9.2056562 49.79370371 9.22460938 46.9453125 C9.22754417 45.12239715 9.22952839 43.29947997 9.23046875 41.4765625 C9.23765427 40.63155182 9.24483978 39.78654114 9.25224304 38.91592407 C9.23306744 33.9037163 8.75796864 29.71566838 7 25 C4.9301673 23.40523651 4.9301673 23.40523651 2.4375 22.6875 C-1.92808552 21.14382896 -1.92808552 21.14382896 -3 19 C-2.96255139 16.91440031 -2.84657615 14.82986135 -2.6875 12.75 C-2.60886719 11.63109375 -2.53023437 10.5121875 -2.44921875 9.359375 C-2 6 -2 6 0 0 Z " fill="#487464" transform="translate(36,43)"/>
<path d="M0 0 C16.5 0 33 0 50 0 C53.29842296 7.9162151 56.47971198 15.79610908 59.43359375 23.8359375 C60.25580662 26.05731119 61.07807392 28.27866474 61.90039062 30.5 C63.16956849 33.93738734 64.43757429 37.37520165 65.7043457 40.81347656 C72.36223422 64.80960658 72.36223422 64.80960658 85.88671875 84.06640625 C86.48097656 84.23011719 87.07523437 84.39382813 87.6875 84.5625 C88.780625 85.036875 89.87375 85.51125 91 86 C92.23811239 89.68867681 91.95091087 92.71932924 91.25 96.5 C91.09015625 97.4178125 90.9303125 98.335625 90.765625 99.28125 C89.89985607 102.35561313 88.918236 104.43966891 87 107 C84.64733887 107.62145996 84.64733887 107.62145996 81.84179688 107.61523438 C80.79060669 107.62453979 79.7394165 107.63384521 78.65637207 107.64343262 C76.95474915 107.61883972 76.95474915 107.61883972 75.21875 107.59375 C73.47120422 107.59381042 73.47120422 107.59381042 71.68835449 107.59387207 C69.22365936 107.5885074 66.75896521 107.5708847 64.29443359 107.54199219 C60.51476959 107.50016345 56.73688744 107.50091944 52.95703125 107.5078125 C50.56509174 107.49731978 48.17316145 107.48438125 45.78125 107.46875 C44.64683472 107.46854858 43.51241943 107.46834717 42.34362793 107.46813965 C41.29243774 107.45222778 40.24124756 107.43631592 39.15820312 107.41992188 C38.23237427 107.41150269 37.30654541 107.4030835 36.35266113 107.39440918 C33.54196031 106.92321246 32.69397986 106.2532988 31 104 C28.89240802 98.5646312 27.95539873 92.79753704 29 87 C31.3125 85.0625 31.3125 85.0625 34 84 C35.7665417 82.81171925 35.7665417 82.81171925 37 81 C37.18358783 78.54267097 37.18358783 78.54267097 36.75 75.9375 C36.64171875 75.05964844 36.5334375 74.18179688 36.421875 73.27734375 C36.10474799 70.97881892 36.10474799 70.97881892 35 69 C25.43 68.67 15.86 68.34 6 68 C5.505 73.94 5.505 73.94 5 80 C7.7425957 82.7425957 8.74411385 83.50207198 12.1875 84.6875 C12.90292969 84.93886719 13.61835938 85.19023437 14.35546875 85.44921875 C14.89816406 85.63097656 15.44085938 85.81273437 16 86 C16.36508578 92.57154411 16.01767752 100.27291824 11.69145203 105.61616516 C9.61441547 107.31545991 8.64117254 107.36568933 5.98754883 107.34057617 C5.18694534 107.34034958 4.38634186 107.34012299 3.56147766 107.33988953 C2.70201035 107.32440567 1.84254303 107.30892181 0.95703125 107.29296875 C-0.36836418 107.28660149 -0.36836418 107.28660149 -1.72053528 107.28010559 C-4.54316661 107.26331043 -7.36508441 107.22565697 -10.1875 107.1875 C-12.10090115 107.17245423 -14.01431349 107.15876564 -15.92773438 107.14648438 C-20.61876459 107.11340419 -25.30926131 107.0616163 -30 107 C-32.47620171 102.32874992 -33.43179425 99.13596256 -33.4375 93.8125 C-33.45683594 92.60207031 -33.47617188 91.39164062 -33.49609375 90.14453125 C-33 87 -33 87 -31.22265625 85.1640625 C-28.53694243 83.75748479 -25.88670974 82.83786494 -23 81.94140625 C-17.96912668 79.57335846 -16.21922125 75.67808172 -14.36242676 70.73033142 C-14.06751343 69.91053299 -13.7726001 69.09073456 -13.46875 68.24609375 C-13.15095581 67.39000015 -12.83316162 66.53390656 -12.5057373 65.65187073 C-11.49344847 62.91744464 -10.4965645 60.17769078 -9.5 57.4375 C-8.83043208 55.62137395 -8.15986886 53.80561453 -7.48828125 51.99023438 C-5.91491219 47.73067881 -4.35743589 43.46553262 -2.8046875 39.19842529 C-2.09293637 37.25390436 -1.36777818 35.31430224 -0.640625 33.37548828 C-0.27453125 32.39692871 0.0915625 31.41836914 0.46875 30.41015625 C0.92411133 29.20758179 0.92411133 29.20758179 1.38867188 27.98071289 C2.14745668 25.86772259 2.14745668 25.86772259 2 23 C1.1853125 22.56042969 0.370625 22.12085938 -0.46875 21.66796875 C-3 20 -3 20 -3.59375 17.36328125 C-3.5628125 16.35652344 -3.531875 15.34976562 -3.5 14.3125 C-3.4896875 13.31863281 -3.479375 12.32476562 -3.46875 11.30078125 C-3 8 -3 8 0 0 Z M21 29 C19.49172203 32.76757497 17.99481006 36.53956349 16.5 40.3125 C16.07074219 41.38435547 15.64148438 42.45621094 15.19921875 43.56054688 C14.59013672 45.10258789 14.59013672 45.10258789 13.96875 46.67578125 C13.40317383 48.0975769 13.40317383 48.0975769 12.82617188 49.5480957 C11.84034418 52.04259941 11.84034418 52.04259941 12 55 C18.6 55 25.2 55 32 55 C30.68930985 51.0410589 29.37653568 47.08283055 28.0625 43.125 C27.68931641 41.99707031 27.31613281 40.86914062 26.93164062 39.70703125 C26.39506836 38.09248047 26.39506836 38.09248047 25.84765625 36.4453125 C25.3527771 34.95281982 25.3527771 34.95281982 24.84790039 33.43017578 C24.06907223 31.03181127 24.06907223 31.03181127 23 29 C22.34 29 21.68 29 21 29 Z " fill="#487464" transform="translate(161,244)"/>
<path d="M0 0 C16.5 0 33 0 50 0 C53.29842296 7.9162151 56.47971198 15.79610908 59.43359375 23.8359375 C60.25580662 26.05731119 61.07807392 28.27866474 61.90039062 30.5 C63.16956849 33.93738734 64.43757429 37.37520165 65.7043457 40.81347656 C72.36223422 64.80960658 72.36223422 64.80960658 85.88671875 84.06640625 C86.48097656 84.23011719 87.07523437 84.39382812 87.6875 84.5625 C88.780625 85.036875 89.87375 85.51125 91 86 C92.23811239 89.68867681 91.95091087 92.71932924 91.25 96.5 C91.09015625 97.4178125 90.9303125 98.335625 90.765625 99.28125 C89.89985607 102.35561313 88.918236 104.43966891 87 107 C84.64733887 107.62145996 84.64733887 107.62145996 81.84179688 107.61523438 C80.79060669 107.62453979 79.7394165 107.63384521 78.65637207 107.64343262 C76.95474915 107.61883972 76.95474915 107.61883972 75.21875 107.59375 C73.47120422 107.59381042 73.47120422 107.59381042 71.68835449 107.59387207 C69.22365936 107.5885074 66.75896521 107.5708847 64.29443359 107.54199219 C60.51476959 107.50016345 56.73688744 107.50091944 52.95703125 107.5078125 C50.56509174 107.49731978 48.17316145 107.48438125 45.78125 107.46875 C44.64683472 107.46854858 43.51241943 107.46834717 42.34362793 107.46813965 C41.29243774 107.45222778 40.24124756 107.43631592 39.15820312 107.41992188 C38.23237427 107.41150269 37.30654541 107.4030835 36.35266113 107.39440918 C33.54196031 106.92321246 32.69397986 106.2532988 31 104 C28.89240802 98.5646312 27.95539873 92.79753704 29 87 C31.3125 85.0625 31.3125 85.0625 34 84 C35.7665417 82.81171925 35.7665417 82.81171925 37 81 C37.18358783 78.54267097 37.18358783 78.54267097 36.75 75.9375 C36.64171875 75.05964844 36.5334375 74.18179688 36.421875 73.27734375 C36.10474799 70.97881892 36.10474799 70.97881892 35 69 C25.43 68.67 15.86 68.34 6 68 C5.505 73.94 5.505 73.94 5 80 C7.7425957 82.7425957 8.74411385 83.50207198 12.1875 84.6875 C12.90292969 84.93886719 13.61835938 85.19023438 14.35546875 85.44921875 C14.89816406 85.63097656 15.44085938 85.81273438 16 86 C16.36508578 92.57154411 16.01767752 100.27291824 11.69145203 105.61616516 C9.61441547 107.31545991 8.64117254 107.36568933 5.98754883 107.34057617 C5.18694534 107.34034958 4.38634186 107.34012299 3.56147766 107.33988953 C2.70201035 107.32440567 1.84254303 107.30892181 0.95703125 107.29296875 C-0.36836418 107.28660149 -0.36836418 107.28660149 -1.72053528 107.28010559 C-4.54316661 107.26331043 -7.36508441 107.22565697 -10.1875 107.1875 C-12.10090115 107.17245423 -14.01431349 107.15876564 -15.92773438 107.14648438 C-20.61876459 107.11340419 -25.30926131 107.0616163 -30 107 C-32.47620171 102.32874992 -33.43179425 99.13596256 -33.4375 93.8125 C-33.45683594 92.60207031 -33.47617187 91.39164062 -33.49609375 90.14453125 C-33 87 -33 87 -31.22265625 85.1640625 C-28.53694243 83.75748479 -25.88670974 82.83786494 -23 81.94140625 C-17.96912668 79.57335846 -16.21922125 75.67808172 -14.36242676 70.73033142 C-14.06751343 69.91053299 -13.7726001 69.09073456 -13.46875 68.24609375 C-13.15095581 67.39000015 -12.83316162 66.53390656 -12.5057373 65.65187073 C-11.49344847 62.91744464 -10.4965645 60.17769078 -9.5 57.4375 C-8.83043208 55.62137395 -8.15986886 53.80561453 -7.48828125 51.99023438 C-5.91491219 47.73067881 -4.35743589 43.46553262 -2.8046875 39.19842529 C-2.09293637 37.25390436 -1.36777818 35.31430224 -0.640625 33.37548828 C-0.27453125 32.39692871 0.0915625 31.41836914 0.46875 30.41015625 C0.92411133 29.20758179 0.92411133 29.20758179 1.38867188 27.98071289 C2.14745668 25.86772259 2.14745668 25.86772259 2 23 C1.1853125 22.56042969 0.370625 22.12085937 -0.46875 21.66796875 C-3 20 -3 20 -3.59375 17.36328125 C-3.5628125 16.35652344 -3.531875 15.34976563 -3.5 14.3125 C-3.4896875 13.31863281 -3.479375 12.32476562 -3.46875 11.30078125 C-3 8 -3 8 0 0 Z M21 29 C19.49172203 32.76757497 17.99481006 36.53956349 16.5 40.3125 C16.07074219 41.38435547 15.64148438 42.45621094 15.19921875 43.56054688 C14.59013672 45.10258789 14.59013672 45.10258789 13.96875 46.67578125 C13.40317383 48.0975769 13.40317383 48.0975769 12.82617188 49.5480957 C11.84034418 52.04259941 11.84034418 52.04259941 12 55 C18.6 55 25.2 55 32 55 C30.68930985 51.0410589 29.37653568 47.08283055 28.0625 43.125 C27.68931641 41.99707031 27.31613281 40.86914062 26.93164062 39.70703125 C26.39506836 38.09248047 26.39506836 38.09248047 25.84765625 36.4453125 C25.3527771 34.95281982 25.3527771 34.95281982 24.84790039 33.43017578 C24.06907223 31.03181127 24.06907223 31.03181127 23 29 C22.34 29 21.68 29 21 29 Z " fill="#487464" transform="translate(395,42)"/>
<path d="M0 0 C19.47 0 38.94 0 59 0 C62.375 10.125 62.375 10.125 62.1875 15.5625 C62.14689453 17.11130859 62.14689453 17.11130859 62.10546875 18.69140625 C62.07066406 19.45324219 62.03585937 20.21507813 62 21 C60.70990357 21.50403768 59.41786211 22.00309926 58.125 22.5 C57.04605469 22.91765625 57.04605469 22.91765625 55.9453125 23.34375 C54 24 54 24 52 24 C51.124427 27.02388782 50.86889239 29.72905387 50.85473633 32.87280273 C50.84835648 33.837379 50.84197662 34.80195526 50.83540344 35.79576111 C50.83429062 36.83124588 50.8331778 37.86673065 50.83203125 38.93359375 C50.82870285 40.00368179 50.82537445 41.07376984 50.82194519 42.17628479 C50.81688512 44.43823822 50.81453658 46.70019911 50.81469727 48.9621582 C50.81251052 52.42086076 50.79434413 55.87924447 50.77539062 59.33789062 C50.77245657 61.53645724 50.77047186 63.73502538 50.76953125 65.93359375 C50.76234573 66.96705429 50.75516022 68.00051483 50.74775696 69.06529236 C50.7523719 70.51688499 50.7523719 70.51688499 50.75708008 71.99780273 C50.75565506 72.84511459 50.75423004 73.69242645 50.75276184 74.56541443 C51.0375039 77.36930564 51.74986303 79.47879535 53 82 C55.14598502 83.23634658 55.14598502 83.23634658 57.625 83.8125 C58.85089844 84.16248047 58.85089844 84.16248047 60.1015625 84.51953125 C61.04128906 84.75736328 61.04128906 84.75736328 62 85 C62.37433812 99.99432123 62.37433812 99.99432123 60 106 C58.25980737 107.74019263 55.87026404 107.14558368 53.50219727 107.16113281 C52.32750381 107.17074036 51.15281036 107.1803479 49.94252014 107.19024658 C48.66340256 107.19449646 47.38428497 107.19874634 46.06640625 107.203125 C44.76299789 107.20882507 43.45958954 107.21452515 42.11668396 107.22039795 C39.35342009 107.23091549 36.59018538 107.23675331 33.8269043 107.24023438 C30.28122994 107.24572303 26.73593888 107.26975519 23.19038486 107.29820633 C19.81573202 107.32127728 16.44113396 107.32327863 13.06640625 107.328125 C11.7893129 107.3404718 10.51221954 107.3528186 9.19642639 107.36553955 C8.01858078 107.36253845 6.84073517 107.35953735 5.62719727 107.35644531 C4.58652603 107.36009094 3.5458548 107.36373657 2.47364807 107.36749268 C1.65734421 107.24622009 0.84104034 107.12494751 0 107 C-3.30171338 102.04742993 -3.11722879 97.54348007 -3.0625 91.6875 C-3.05347656 90.43324219 -3.04445313 89.17898437 -3.03515625 87.88671875 C-3.01775391 86.45779297 -3.01775391 86.45779297 -3 85 C-2.37351562 84.84144531 -1.74703125 84.68289062 -1.1015625 84.51953125 C0.12433594 84.16955078 0.12433594 84.16955078 1.375 83.8125 C2.59316406 83.48185547 2.59316406 83.48185547 3.8359375 83.14453125 C6.78137966 81.58674325 6.99627765 80.12673949 8 77 C8.29115966 74.54751887 8.29115966 74.54751887 8.24291992 71.99780273 C8.24599655 71.03007431 8.24907318 70.06234589 8.25224304 69.06529236 C8.24505753 68.03183182 8.23787201 66.99837128 8.23046875 65.93359375 C8.23001053 64.86254898 8.22955231 63.79150421 8.2290802 62.68800354 C8.22606391 60.42781463 8.21819629 58.16762769 8.20581055 55.9074707 C8.18754856 52.4467025 8.18530103 48.986202 8.18554688 45.52539062 C8.18063151 43.32812269 8.17480311 41.13085656 8.16796875 38.93359375 C8.16685593 37.89810898 8.1657431 36.86262421 8.16459656 35.79576111 C8.15821671 34.83118484 8.15183685 33.86660858 8.14526367 32.87280273 C8.14145187 32.02628647 8.13764008 31.1797702 8.13371277 30.30760193 C8.00457245 28.07891083 7.61946701 26.13939757 7 24 C6.36191406 23.86722656 5.72382813 23.73445313 5.06640625 23.59765625 C4.24011719 23.42105469 3.41382813 23.24445313 2.5625 23.0625 C1.32693359 22.80146484 1.32693359 22.80146484 0.06640625 22.53515625 C-2 22 -2 22 -3 21 C-3.15437265 19.17127787 -3.22219673 17.33501568 -3.25 15.5 C-3.27578125 14.4996875 -3.3015625 13.499375 -3.328125 12.46875 C-3 9 -3 9 0 0 Z " fill="#487464" transform="translate(497,42)"/>
</svg>
