<?xml version="1.0" encoding="UTF-8" standalone="no"?>
<!-- Uploaded to: SVG Repo, www.svgrepo.com, Generator: SVG Repo Mixer Tools -->

<svg
   fill="#000000"
   height="830.00006"
   width="829.99994"
   version="1.1"
   id="Capa_1"
   viewBox="0 0 221.00304 221.00308"
   xml:space="preserve"
   sodipodi:docname="spot.svg"
   inkscape:version="1.1.2 (0a00cf5339, 2022-02-04)"
   xmlns:inkscape="http://www.inkscape.org/namespaces/inkscape"
   xmlns:sodipodi="http://sodipodi.sourceforge.net/DTD/sodipodi-0.dtd"
   xmlns="http://www.w3.org/2000/svg"
   xmlns:svg="http://www.w3.org/2000/svg"><defs
   id="defs7" /><sodipodi:namedview
   id="namedview5"
   pagecolor="#ffffff"
   bordercolor="#666666"
   borderopacity="1.0"
   inkscape:pageshadow="2"
   inkscape:pageopacity="0.0"
   inkscape:pagecheckerboard="0"
   showgrid="false"
   fit-margin-top="0"
   fit-margin-left="0"
   fit-margin-right="0"
   fit-margin-bottom="0"
   inkscape:zoom="1.09125"
   inkscape:cx="394.50172"
   inkscape:cy="412.82932"
   inkscape:window-width="2495"
   inkscape:window-height="1621"
   inkscape:window-x="638"
   inkscape:window-y="218"
   inkscape:window-maximized="0"
   inkscape:current-layer="Capa_1" />
<g
   id="g1060"
   transform="matrix(1.0011201,0,0,1.0024688,3.7937148,3.3535213)"
   style="stroke-width:0.998209"><rect
     style="fill:#f5f5f5;stroke:none;stroke-width:0;stroke-miterlimit:4;stroke-dasharray:none;stop-color:#000000"
     id="rect850"
     width="220.75578"
     height="220.4588"
     x="-3.7894702"
     y="-3.3452625" /><path
     d="m 209.45742,105.50053 -97.6106,60.39492 c -1.52812,9.49999 -5.50565,18.68498 -11.957694,26.53297 l -82.032048,-76.3579 c 7.981171,-7.43199 17.607001,-12.10599 27.65982,-14.04998 L 107.02034,3.540662 c 2.19823,-3.51799549 6.84287,-4.594994 10.37833,-2.4099969 3.53446,2.1879972 4.61851,6.8119912 2.42128,10.3299869 L 63.612173,101.46054 c 9.329451,1.21 18.410745,4.73799 26.30049,10.60298 L 178.58363,23.805636 c 2.94371,-2.927996 7.71393,-2.927996 10.65663,0 2.94271,2.929996 2.94271,7.67799 0,10.606986 l -88.56347,88.150888 c 6.011,7.65999 9.74137,16.51098 11.19012,25.65697 l 89.63244,-55.458934 c 3.53547,-2.186997 8.18211,-1.105998 10.37733,2.409997 2.19925,3.517995 1.1152,8.141997 -2.41926,10.328987 z M 16.478658,196.61241 c 19.70879,19.61698 50.388676,21.63298 72.369045,6.075 L 8.2965513,127.7085 c -13.3220449,21.58598 -10.6043879,50.20594 8.1821067,68.90391 z"
     id="path2"
     style="stroke-width:0.998209" /></g>
</svg>
