<svg xmlns="http://www.w3.org/2000/svg" viewBox="0 0 340.75 85.15"><defs><style>.cls-1{fill:#8ad040;}.cls-2{fill:#ed50af;}.cls-3{fill:#e74999;}.cls-4{fill:#e4ed47;}.cls-5{fill:#b3db18;}.cls-6{fill:#e1ac11;}.cls-7{fill:#dcaf12;}.cls-8{fill:#9ad9f6;}.cls-9{fill:#8c88cc;}.cls-10{fill:#8585ca;}.cls-11{fill:#91c09c;}.cls-12{fill:#8bc095;}.cls-13{fill:#5c5e65;}</style></defs><g id="Livello_2" data-name="Livello 2"><g id="Livello_1-2" data-name="Livello 1"><g id="g10"><g id="g12"><path id="path14" class="cls-1" d="M19.47,0A19.59,19.59,0,0,0,0,19.6V21H19.47V0"/><path id="path16" class="cls-2" d="M62.15,6H85V0H62.15V6"/><path id="path18" class="cls-3" d="M34.38,21V6H62.15V0H19.47V21H34.38"/><path id="path20" class="cls-4" d="M19.47,32.21H0V85.09H28.71v-24H19.47V32.21"/><path id="path22" class="cls-5" d="M19.47,21H0V32.21H19.47V21"/><path id="path24" class="cls-6" d="M19.47,32.21V61.08h9.24V44.79h5.67V32.21H19.47"/><path id="path26" class="cls-7" d="M19.47,32.21H34.38V21H19.47V32.21"/><path id="path28" class="cls-8" d="M55.3,85.09H85v-24H55.3v24"/><path id="path30" class="cls-9" d="M62.15,32.21H47.93V44.79H55.3V61.08H85V6H62.15V32.21"/><path id="path32" class="cls-10" d="M34.38,21H47.93V32.21H62.15V6H34.38V21"/><path id="path34" class="cls-11" d="M34.38,44.79H47.93V32.21H34.38V44.79"/><path id="path36" class="cls-12" d="M34.38,32.21H47.93V21H34.38V32.21"/><path id="path38" class="cls-13" d="M125.6,15.64h-9.24l-.44.44v8.8l.44.44h9.24c4,0,5.72-1.32,5.72-4.84S129.56,15.64,125.6,15.64Zm0,13.64h-9.24l-.44.44V42l-.44.44H112l-.44-.44V12.12l.44-.44H125.6c6.16,0,10.12,2.64,10.12,8.8s-4.4,8.8-10.12,8.8"/><path id="path40" class="cls-13" d="M144.52,42.48H141l-.44-.44V12.12l.44-.44h3.53l.44.44V42l-.44.44"/><path id="path42" class="cls-13" d="M174.87,42.92c-7.48,0-12.32-3.52-12.32-10.12l.44-.44h3.52l.44.44C167,37.2,170,39,175.31,39c4,0,7.05-1.32,7.05-4.84,0-4-2.64-4.84-8.8-5.72s-10.13-3.52-10.13-8.8c0-4,3.08-8.36,11-8.36,6.6,0,11.44,2.64,11.44,9.24l-.44.44h-3.52l-.44-.44c0-3.52-1.76-5.28-7.48-5.28-4,0-6.17,1.76-6.17,4.4,0,3.52,2.2,4.4,8.36,5.28s10.57,3.08,10.57,9.24c0,4.84-3.52,8.8-11.89,8.8"/><path id="path44" class="cls-13" d="M190.71,27.08c0-9.24,5.28-15.84,14.52-15.84,7.05,0,11.45,4,12.33,9.24l-.44.44H213.6l-.44-.44c-.88-3.08-3.52-5.28-7.93-5.28-6.6,0-10.12,4.84-10.12,11.88S198.63,39,205.23,39c4.84,0,7.05-2.64,7.93-5.72l.44-.44h3.52l.44.44c-.88,5.28-4.84,9.68-12.33,9.68-9.24,0-14.52-6.6-14.52-15.84"/><path id="path46" class="cls-13" d="M247,42.48h-3.53l-.44-.44V29.28l-.44-.44H228.11l-.44.44V42l-.44.44h-3.52l-.44-.44V12.12l.44-.44h3.52l.44.44V24.44l.44.44h14.52l.44-.44V12.12l.44-.44H247l.44.44V42l-.44.44"/><path id="path48" class="cls-13" d="M267.71,39c6.6,0,10.12-4.84,10.12-11.88S274.31,15.2,267.71,15.2,257.59,20,257.59,27.08,261.11,39,267.71,39Zm0-27.72c9.24,0,14.53,6.6,14.53,15.84S277,42.92,267.71,42.92s-14.52-6.6-14.52-15.84,5.28-15.84,14.52-15.84"/><path id="path50" class="cls-13" d="M300.71,39c6.6,0,10.12-4.84,10.12-11.88S307.31,15.2,300.71,15.2,290.59,20,290.59,27.08,294.11,39,300.71,39Zm0-27.72c9.24,0,14.52,6.6,14.52,15.84S310,42.92,300.71,42.92s-14.52-6.6-14.52-15.84,5.28-15.84,14.52-15.84"/><path id="path52" class="cls-13" d="M340.31,42.48H321.39L321,42V12.12l.44-.44h3.52l.44.44v26l.44.44h14.52l.44.44V42l-.44.44"/><path id="path54" class="cls-13" d="M122.1,67h-.6l-.15-.15v-8.7h-.15l-3.74,8.7-.16.15h-.74l-.16-.15-3.74-8.7h-.15v8.7l-.15.15h-.6l-.15-.15V56.67l.15-.15h1l.15.15,3.89,9.15H117l3.89-9.15.15-.15h1l.15.15v10.2l-.15.15"/><path id="path56" class="cls-13" d="M126,63.12l.15.15h3.75l.15-.15-1.95-5.25h-.15Zm4.5,1.05-.3-.15h-4.35l-.3.15-1.05,2.7-.15.15h-.45l-.15-.15v-.45l3.75-9.75.15-.15h.75l.15.15,3.75,9.75v.45l-.15.15h-.45l-.15-.15-1-2.7"/><path id="path58" class="cls-13" d="M133.18,61.77c0-3.6,2.25-5.4,4.8-5.4,2.1,0,3.75,1.05,4.05,3.15l-.15.15h-.6l-.15-.15a2.88,2.88,0,0,0-3.15-2.4c-2.25,0-3.9,1.65-3.9,4.65s1.65,4.65,3.9,4.65a2.88,2.88,0,0,0,3.15-2.55l.15-.15h.6l.15.15c-.3,2.25-1.95,3.3-4.05,3.3-2.55,0-4.8-1.8-4.8-5.4"/><path id="path60" class="cls-13" d="M151.62,67H151l-.15-.15V62.22l-.15-.15h-5.85l-.15.15v4.65l-.15.15H144l-.14-.15V56.67l.14-.15h.6l.15.15v4.5l.15.15h5.85l.15-.15v-4.5l.15-.15h.6l.15.15v10.2l-.15.15"/><path id="path62" class="cls-13" d="M154.91,67h-.6l-.14-.15V56.67l.14-.15h.6l.15.15v10.2l-.15.15"/><path id="path64" class="cls-13" d="M165.56,67h-.75l-.3-.15-6-8.85h-.15v8.85l-.15.15h-.6l-.15-.15V56.67l.15-.15h.75l.3.15,6,8.85h.15V56.67l.15-.15h.6l.15.15v10.2l-.15.15"/><path id="path66" class="cls-13" d="M174.7,67h-6.45l-.15-.15V56.67l.15-.15h6.45l.15.15v.45l-.15.15h-5.55l-.15.15v3.75l.15.15h5.25l.15.15v.45l-.15.15h-5.25l-.15.15v3.9l.15.15h5.55l.15.15v.45l-.15.15"/><path id="path68" class="cls-13" d="M181.44,67h-.6l-.15-.15V56.67l.15-.15h.6l.15.15v10.2l-.15.15"/><path id="path70" class="cls-13" d="M192.08,67h-.75l-.3-.15L185,58h-.15v8.85l-.15.15h-.6l-.15-.15V56.67l.15-.15h.75l.3.15,6,8.85h.15V56.67l.15-.15h.6l.15.15v10.2l-.15.15"/><path id="path72" class="cls-13" d="M201.67,57.27h-3.3l-.15.15v9.45l-.15.15h-.6l-.15-.15V57.42l-.15-.15h-3.3l-.15-.15v-.45l.15-.15h7.8l.15.15v.45l-.15.15"/><path id="path74" class="cls-13" d="M209.91,67h-6.45l-.15-.15V56.67l.15-.15h6.45l.15.15v.45l-.15.15h-5.55l-.15.15v3.75l.15.15h5.25l.15.15v.45l-.15.15h-5.25l-.15.15v3.9l.15.15h5.55l.15.15v.45l-.15.15"/><path id="path76" class="cls-13" d="M218.3,67h-6.14l-.15-.15V56.67l.15-.15h.6l.15.15v9.45l.15.15h5.24l.15.15v.45l-.15.15"/><path id="path78" class="cls-13" d="M226.1,67H220l-.15-.15V56.67l.15-.15h.6l.15.15v9.45l.15.15h5.25l.15.15v.45l-.15.15"/><path id="path80" class="cls-13" d="M228.34,67h-.6l-.15-.15V56.67l.15-.15h.6l.15.15v10.2l-.15.15"/><path id="path82" class="cls-13" d="M230.29,61.77c0-3.6,2.25-5.4,4.94-5.4a3.74,3.74,0,0,1,4.05,3.15l-.15.15h-.6l-.15-.15a2.89,2.89,0,0,0-3.15-2.4c-2.54,0-4,2-4,4.65s1.5,4.65,4,4.65c2.7,0,3.15-1.8,3.15-3.75l-.15-.15h-3.45l-.15-.15v-.45l.15-.15h4.35l.15.15v5l-.15.15h-.3l-.15-.15-.15-1.2h-.15a3.58,3.58,0,0,1-3.15,1.5c-2.69,0-4.94-1.8-4.94-5.4"/><path id="path84" class="cls-13" d="M248,67h-6.44l-.15-.15V56.67l.15-.15H248l.15.15v.45l-.15.15h-5.54l-.15.15v3.75l.15.15h5.24l.15.15v.45l-.15.15h-5.24l-.15.15v3.9l.15.15H248l.15.15v.45L248,67"/><path id="path86" class="cls-13" d="M258.17,67h-.76l-.3-.15-6-8.85H251v8.85l-.15.15h-.6l-.15-.15V56.67l.15-.15H251l.3.15,6,8.85h.14V56.67l.15-.15h.61l.14.15v10.2l-.14.15"/><path id="path88" class="cls-13" d="M260.11,61.77c0-3.6,2.25-5.4,4.8-5.4,2.09,0,3.74,1.05,4,3.15l-.15.15h-.6l-.15-.15a2.87,2.87,0,0,0-3.14-2.4c-2.25,0-3.9,1.65-3.9,4.65s1.65,4.65,3.9,4.65a2.87,2.87,0,0,0,3.14-2.55l.15-.15h.6l.15.15a3.69,3.69,0,0,1-4,3.3c-2.55,0-4.8-1.8-4.8-5.4"/><path id="path90" class="cls-13" d="M277.34,67H270.9l-.15-.15V56.67l.15-.15h6.44l.15.15v.45l-.15.15H271.8l-.15.15v3.75l.15.15h5.25l.14.15v.45l-.14.15H271.8l-.15.15v3.9l.15.15h5.54l.15.15v.45l-.15.15"/><path id="path92" class="cls-13" d="M122.1,85h-.6l-.15-.14v-8.7h-.15l-3.74,8.7-.16.14h-.74l-.16-.14-3.74-8.7h-.15v8.7l-.15.14h-.6l-.15-.14V74.66l.15-.15h1l.15.15,3.89,9.15H117l3.89-9.15.15-.15h1l.15.15v10.2l-.15.14"/><path id="path94" class="cls-13" d="M131.24,85h-6.45l-.15-.14V74.66l.15-.15h6.45l.15.15v.45l-.15.15h-5.55l-.15.15v3.75l.15.15h5.25l.15.15v.45l-.15.15h-5.25l-.15.15v3.9l.15.14h5.55l.15.15v.46l-.15.14"/><path id="path96" class="cls-13" d="M139.93,85h-6.44l-.15-.14V74.66l.15-.15h6.44l.15.15v.45l-.15.15h-5.54l-.16.15v3.75l.16.15h5.24l.15.15v.45l-.15.15h-5.24l-.16.15v3.9l.16.14h5.54l.15.15v.46l-.15.14"/><path id="path98" class="cls-13" d="M149.07,75.26h-3.29l-.15.15v9.45l-.15.14h-.6l-.15-.14V75.41l-.15-.15h-3.3l-.15-.15v-.45l.15-.15h7.79l.15.15v.45l-.15.15"/><path id="path100" class="cls-13" d="M154,85.15c-2.4,0-3.9-1.19-3.9-3.29l.15-.15h.6l.15.15c0,1.64,1,2.54,3.15,2.54,1.8,0,2.7-.9,2.7-2.09,0-1.35-.9-1.8-3.15-2.4s-3.3-1.35-3.3-3c0-1,.6-2.55,3.45-2.55,1.95,0,3.6.75,3.6,3l-.15.15h-.6l-.15-.15q0-2.25-2.7-2.25c-2.1,0-2.55.9-2.55,1.8,0,1.35.9,1.8,3.15,2.4s3.3,1.2,3.3,3c0,1.35-.75,2.84-3.75,2.84"/><path id="path102" class="cls-13" d="M171.25,85h-.6l-.15-.14V80.21l-.15-.15h-5.84l-.16.15v4.65l-.14.14h-.6l-.15-.14V74.66l.15-.15h.6l.14.15v4.5l.16.15h5.84l.15-.15v-4.5l.15-.15h.6l.15.15v10.2l-.15.14"/><path id="path104" class="cls-13" d="M181.59,81.26a3.9,3.9,0,0,1-7.79,0v-6.6l.15-.15h.6l.14.15v6.6a2.87,2.87,0,0,0,3,3.14c1.95,0,3-1.19,3-3.14v-6.6l.15-.15h.6l.15.15v6.6"/><path id="path106" class="cls-13" d="M194.48,85h-.6l-.15-.14v-8.7h-.15l-3.75,8.7-.15.14h-.75l-.15-.14L185,76.16h-.15v8.7l-.15.14h-.6l-.15-.14V74.66l.15-.15h1.05l.15.15,3.9,9.15h.15l3.9-9.15.15-.15h1l.15.15v10.2l-.15.14"/><path id="path108" class="cls-13" d="M198.37,81.11l.15.15h3.75l.15-.15-1.95-5.25h-.15Zm4.5,1-.3-.15h-4.35l-.3.15-1,2.7-.15.14h-.45l-.15-.14V84.4l3.75-9.74.15-.15h.75l.15.15,3.75,9.74v.46l-.15.14h-.45l-.15-.14-1-2.7"/><path id="path110" class="cls-13" d="M214.26,85h-.75l-.3-.14-6-8.85h-.15v8.85l-.15.14h-.6l-.15-.14V74.66l.15-.15h.75l.3.15,6,8.84h.15V74.66l.15-.15h.6l.15.15v10.2l-.15.14"/><path id="path112" class="cls-13" d="M220.1,79.76c0-3.6,2.25-5.4,4.8-5.4,2.1,0,3.75,1,4,3.15l-.15.15h-.6l-.14-.15a2.88,2.88,0,0,0-3.15-2.4c-2.25,0-3.9,1.65-3.9,4.65s1.65,4.64,3.9,4.64a2.88,2.88,0,0,0,3.15-2.54l.14-.15h.6l.15.15c-.29,2.25-1.94,3.29-4,3.29-2.55,0-4.8-1.79-4.8-5.39"/><path id="path114" class="cls-13" d="M235.39,75.26h-3.6l-.15.15v3.9l.15.15h3.45c1.49,0,2.39-.45,2.39-2.1S236.73,75.26,235.39,75.26Zm-1,4.95h-2.55l-.15.15v4.5l-.15.14h-.6l-.15-.14V74.66l.15-.15h4.35c2.25,0,3.29.9,3.29,2.85a2.63,2.63,0,0,1-2.84,2.85v.15l2.54,4v.46l-.14.14h-.3l-.3-.14-2.85-4.5-.3-.15"/><path id="path116" class="cls-13" d="M246.93,85h-6.45l-.15-.14V74.66l.15-.15h6.45l.15.15v.45l-.15.15h-5.55l-.15.15v3.75l.15.15h5.25l.15.15v.45l-.15.15h-5.25l-.15.15v3.9l.15.14h5.55l.15.15v.46l-.15.14"/><path id="path118" class="cls-13" d="M250.37,81.11l.15.15h3.75l.15-.15-1.95-5.25h-.15Zm4.5,1-.3-.15h-4.35l-.3.15-1,2.7-.15.14h-.45l-.15-.14V84.4l3.75-9.74.15-.15h.75l.15.15,3.75,9.74v.46l-.15.14h-.45l-.15-.14-1-2.7"/><path id="path120" class="cls-13" d="M265.21,75.26h-3.3l-.15.15v9.45l-.15.14H261l-.15-.14V75.41l-.15-.15h-3.3l-.15-.15v-.45l.15-.15h7.8l.15.15v.45l-.15.15"/><path id="path122" class="cls-13" d="M267.6,85H267l-.15-.14V74.66l.15-.15h.6l.15.15v10.2l-.15.14"/><path id="path124" class="cls-13" d="M274.2,84.86l-.15.14h-.75l-.15-.14-3.75-9.75v-.45l.15-.15H270l.15.15,3.45,9.15h.15l3.45-9.15.15-.15h.45l.15.15v.45l-3.75,9.75"/><path id="path126" class="cls-13" d="M280.34,85h-.6l-.15-.14V74.66l.15-.15h.6l.15.15v10.2l-.15.14"/><path id="path128" class="cls-13" d="M289.93,75.26h-3.3l-.14.15v9.45l-.16.14h-.6l-.14-.14V75.41l-.15-.15h-3.3l-.15-.15v-.45l.15-.15h7.79l.15.15v.45l-.15.15"/><path id="path130" class="cls-13" d="M295,80.66v4.2l-.15.14h-.6l-.15-.14v-4.2l-3.3-5.55v-.45l.15-.15h.3l.3.15,2.85,5h.3l2.85-5,.3-.15h.29l.16.15v.45L295,80.66"/></g></g></g></g></svg>