<svg class="rich-terminal" viewBox="0 0 1080 660.0" xmlns="http://www.w3.org/2000/svg">
    <!-- Generated with Rich https://www.textualize.io -->
    <style>

    @font-face {
        font-family: "Fira Code";
        src: local("FiraCode-Regular"),
                url("https://cdnjs.cloudflare.com/ajax/libs/firacode/6.2.0/woff2/FiraCode-Regular.woff2") format("woff2"),
                url("https://cdnjs.cloudflare.com/ajax/libs/firacode/6.2.0/woff/FiraCode-Regular.woff") format("woff");
        font-style: normal;
        font-weight: 400;
    }
    @font-face {
        font-family: "Fira Code";
        src: local("FiraCode-Bold"),
                url("https://cdnjs.cloudflare.com/ajax/libs/firacode/6.2.0/woff2/FiraCode-Bold.woff2") format("woff2"),
                url("https://cdnjs.cloudflare.com/ajax/libs/firacode/6.2.0/woff/FiraCode-Bold.woff") format("woff");
        font-style: bold;
        font-weight: 700;
    }

    .terminal-957329330-matrix {
        font-family: Fira Code, monospace;
        font-size: 20px;
        line-height: 24.4px;
        font-variant-east-asian: full-width;
    }

    .terminal-957329330-title {
        font-size: 18px;
        font-weight: bold;
        font-family: arial;
    }

    .terminal-957329330-r1 { fill: #c5c8c6 }
.terminal-957329330-r2 { fill: #e0e0e0 }
.terminal-957329330-r3 { fill: #ddedf9;font-weight: bold }
.terminal-957329330-r4 { fill: #454545 }
.terminal-957329330-r5 { fill: #797979 }
.terminal-957329330-r6 { fill: #4f4f4f }
.terminal-957329330-r7 { fill: #0178d4 }
.terminal-957329330-r8 { fill: #121212 }
.terminal-957329330-r9 { fill: #191919 }
.terminal-957329330-r10 { fill: #737373 }
.terminal-957329330-r11 { fill: #7f7f7f }
.terminal-957329330-r12 { fill: #2d2d2d }
.terminal-957329330-r13 { fill: #6db2ff }
.terminal-957329330-r14 { fill: #7a3a47 }
.terminal-957329330-r15 { fill: #e0e0e0;font-weight: bold }
.terminal-957329330-r16 { fill: #8f7178;font-weight: bold }
.terminal-957329330-r17 { fill: #0d0d0d }
.terminal-957329330-r18 { fill: #004295 }
.terminal-957329330-r19 { fill: #43081c }
    </style>

    <defs>
    <clipPath id="terminal-957329330-clip-terminal">
      <rect x="0" y="0" width="1060.3999999999999" height="609.0" />
    </clipPath>
    <clipPath id="terminal-957329330-line-0">
    <rect x="0" y="1.5" width="1061.4" height="24.65"/>
            </clipPath>
<clipPath id="terminal-957329330-line-1">
    <rect x="0" y="25.9" width="1061.4" height="24.65"/>
            </clipPath>
<clipPath id="terminal-957329330-line-2">
    <rect x="0" y="50.3" width="1061.4" height="24.65"/>
            </clipPath>
<clipPath id="terminal-957329330-line-3">
    <rect x="0" y="74.7" width="1061.4" height="24.65"/>
            </clipPath>
<clipPath id="terminal-957329330-line-4">
    <rect x="0" y="99.1" width="1061.4" height="24.65"/>
            </clipPath>
<clipPath id="terminal-957329330-line-5">
    <rect x="0" y="123.5" width="1061.4" height="24.65"/>
            </clipPath>
<clipPath id="terminal-957329330-line-6">
    <rect x="0" y="147.9" width="1061.4" height="24.65"/>
            </clipPath>
<clipPath id="terminal-957329330-line-7">
    <rect x="0" y="172.3" width="1061.4" height="24.65"/>
            </clipPath>
<clipPath id="terminal-957329330-line-8">
    <rect x="0" y="196.7" width="1061.4" height="24.65"/>
            </clipPath>
<clipPath id="terminal-957329330-line-9">
    <rect x="0" y="221.1" width="1061.4" height="24.65"/>
            </clipPath>
<clipPath id="terminal-957329330-line-10">
    <rect x="0" y="245.5" width="1061.4" height="24.65"/>
            </clipPath>
<clipPath id="terminal-957329330-line-11">
    <rect x="0" y="269.9" width="1061.4" height="24.65"/>
            </clipPath>
<clipPath id="terminal-957329330-line-12">
    <rect x="0" y="294.3" width="1061.4" height="24.65"/>
            </clipPath>
<clipPath id="terminal-957329330-line-13">
    <rect x="0" y="318.7" width="1061.4" height="24.65"/>
            </clipPath>
<clipPath id="terminal-957329330-line-14">
    <rect x="0" y="343.1" width="1061.4" height="24.65"/>
            </clipPath>
<clipPath id="terminal-957329330-line-15">
    <rect x="0" y="367.5" width="1061.4" height="24.65"/>
            </clipPath>
<clipPath id="terminal-957329330-line-16">
    <rect x="0" y="391.9" width="1061.4" height="24.65"/>
            </clipPath>
<clipPath id="terminal-957329330-line-17">
    <rect x="0" y="416.3" width="1061.4" height="24.65"/>
            </clipPath>
<clipPath id="terminal-957329330-line-18">
    <rect x="0" y="440.7" width="1061.4" height="24.65"/>
            </clipPath>
<clipPath id="terminal-957329330-line-19">
    <rect x="0" y="465.1" width="1061.4" height="24.65"/>
            </clipPath>
<clipPath id="terminal-957329330-line-20">
    <rect x="0" y="489.5" width="1061.4" height="24.65"/>
            </clipPath>
<clipPath id="terminal-957329330-line-21">
    <rect x="0" y="513.9" width="1061.4" height="24.65"/>
            </clipPath>
<clipPath id="terminal-957329330-line-22">
    <rect x="0" y="538.3" width="1061.4" height="24.65"/>
            </clipPath>
<clipPath id="terminal-957329330-line-23">
    <rect x="0" y="562.7" width="1061.4" height="24.65"/>
            </clipPath>
    </defs>

    <rect fill="#292929" stroke="rgba(255,255,255,0.35)" stroke-width="1" x="1" y="1" width="1078" height="658" rx="8"/><text class="terminal-957329330-title" fill="#c5c8c6" text-anchor="middle" x="539" y="27">I-man&#160;Interactive&#160;Terminal</text>
            <g transform="translate(26,22)">
            <circle cx="0" cy="0" r="7" fill="#ff5f57"/>
            <circle cx="22" cy="0" r="7" fill="#febc2e"/>
            <circle cx="44" cy="0" r="7" fill="#28c840"/>
            </g>
        
    <g transform="translate(9, 41)" clip-path="url(#terminal-957329330-clip-terminal)">
    <rect fill="#242f38" x="0" y="1.5" width="12.2" height="24.65" shape-rendering="crispEdges"/><rect fill="#242f38" x="12.2" y="1.5" width="12.2" height="24.65" shape-rendering="crispEdges"/><rect fill="#242f38" x="24.4" y="1.5" width="61" height="24.65" shape-rendering="crispEdges"/><rect fill="#242f38" x="85.4" y="1.5" width="12.2" height="24.65" shape-rendering="crispEdges"/><rect fill="#242f38" x="97.6" y="1.5" width="244" height="24.65" shape-rendering="crispEdges"/><rect fill="#242f38" x="341.6" y="1.5" width="353.8" height="24.65" shape-rendering="crispEdges"/><rect fill="#242f38" x="695.4" y="1.5" width="244" height="24.65" shape-rendering="crispEdges"/><rect fill="#242f38" x="939.4" y="1.5" width="12.2" height="24.65" shape-rendering="crispEdges"/><rect fill="#242f38" x="951.6" y="1.5" width="0" height="24.65" shape-rendering="crispEdges"/><rect fill="#242f38" x="951.6" y="1.5" width="97.6" height="24.65" shape-rendering="crispEdges"/><rect fill="#242f38" x="1049.2" y="1.5" width="12.2" height="24.65" shape-rendering="crispEdges"/><rect fill="#0178d4" x="0" y="25.9" width="12.2" height="24.65" shape-rendering="crispEdges"/><rect fill="#0178d4" x="12.2" y="25.9" width="122" height="24.65" shape-rendering="crispEdges"/><rect fill="#0178d4" x="134.2" y="25.9" width="12.2" height="24.65" shape-rendering="crispEdges"/><rect fill="#121212" x="146.4" y="25.9" width="12.2" height="24.65" shape-rendering="crispEdges"/><rect fill="#121212" x="158.6" y="25.9" width="97.6" height="24.65" shape-rendering="crispEdges"/><rect fill="#121212" x="256.2" y="25.9" width="12.2" height="24.65" shape-rendering="crispEdges"/><rect fill="#121212" x="268.4" y="25.9" width="12.2" height="24.65" shape-rendering="crispEdges"/><rect fill="#121212" x="280.6" y="25.9" width="48.8" height="24.65" shape-rendering="crispEdges"/><rect fill="#121212" x="329.4" y="25.9" width="12.2" height="24.65" shape-rendering="crispEdges"/><rect fill="#121212" x="341.6" y="25.9" width="719.8" height="24.65" shape-rendering="crispEdges"/><rect fill="#121212" x="0" y="50.3" width="12.2" height="24.65" shape-rendering="crispEdges"/><rect fill="#121212" x="12.2" y="50.3" width="122" height="24.65" shape-rendering="crispEdges"/><rect fill="#121212" x="134.2" y="50.3" width="12.2" height="24.65" shape-rendering="crispEdges"/><rect fill="#121212" x="146.4" y="50.3" width="915" height="24.65" shape-rendering="crispEdges"/><rect fill="#121212" x="0" y="74.7" width="48.8" height="24.65" shape-rendering="crispEdges"/><rect fill="#121212" x="48.8" y="74.7" width="61" height="24.65" shape-rendering="crispEdges"/><rect fill="#191919" x="109.8" y="74.7" width="12.2" height="24.65" shape-rendering="crispEdges"/><rect fill="#1e1e1e" x="122" y="74.7" width="927.2" height="24.65" shape-rendering="crispEdges"/><rect fill="#121212" x="1049.2" y="74.7" width="12.2" height="24.65" shape-rendering="crispEdges"/><rect fill="#121212" x="0" y="99.1" width="109.8" height="24.65" shape-rendering="crispEdges"/><rect fill="#191919" x="109.8" y="99.1" width="12.2" height="24.65" shape-rendering="crispEdges"/><rect fill="#1e1e1e" x="122" y="99.1" width="24.4" height="24.65" shape-rendering="crispEdges"/><rect fill="#1e1e1e" x="146.4" y="99.1" width="48.8" height="24.65" shape-rendering="crispEdges"/><rect fill="#1e1e1e" x="195.2" y="99.1" width="829.6" height="24.65" shape-rendering="crispEdges"/><rect fill="#1e1e1e" x="1024.8" y="99.1" width="24.4" height="24.65" shape-rendering="crispEdges"/><rect fill="#121212" x="1049.2" y="99.1" width="12.2" height="24.65" shape-rendering="crispEdges"/><rect fill="#121212" x="0" y="123.5" width="109.8" height="24.65" shape-rendering="crispEdges"/><rect fill="#191919" x="109.8" y="123.5" width="12.2" height="24.65" shape-rendering="crispEdges"/><rect fill="#1e1e1e" x="122" y="123.5" width="927.2" height="24.65" shape-rendering="crispEdges"/><rect fill="#121212" x="1049.2" y="123.5" width="12.2" height="24.65" shape-rendering="crispEdges"/><rect fill="#121212" x="0" y="147.9" width="1061.4" height="24.65" shape-rendering="crispEdges"/><rect fill="#121212" x="0" y="172.3" width="97.6" height="24.65" shape-rendering="crispEdges"/><rect fill="#121212" x="97.6" y="172.3" width="12.2" height="24.65" shape-rendering="crispEdges"/><rect fill="#191919" x="109.8" y="172.3" width="12.2" height="24.65" shape-rendering="crispEdges"/><rect fill="#1e1e1e" x="122" y="172.3" width="927.2" height="24.65" shape-rendering="crispEdges"/><rect fill="#121212" x="1049.2" y="172.3" width="12.2" height="24.65" shape-rendering="crispEdges"/><rect fill="#121212" x="0" y="196.7" width="109.8" height="24.65" shape-rendering="crispEdges"/><rect fill="#191919" x="109.8" y="196.7" width="12.2" height="24.65" shape-rendering="crispEdges"/><rect fill="#1e1e1e" x="122" y="196.7" width="24.4" height="24.65" shape-rendering="crispEdges"/><rect fill="#1e1e1e" x="146.4" y="196.7" width="73.2" height="24.65" shape-rendering="crispEdges"/><rect fill="#1e1e1e" x="219.6" y="196.7" width="780.8" height="24.65" shape-rendering="crispEdges"/><rect fill="#1e1e1e" x="1000.4" y="196.7" width="12.2" height="24.65" shape-rendering="crispEdges"/><rect fill="#1e1e1e" x="1012.6" y="196.7" width="12.2" height="24.65" shape-rendering="crispEdges"/><rect fill="#1e1e1e" x="1024.8" y="196.7" width="24.4" height="24.65" shape-rendering="crispEdges"/><rect fill="#121212" x="1049.2" y="196.7" width="12.2" height="24.65" shape-rendering="crispEdges"/><rect fill="#121212" x="0" y="221.1" width="109.8" height="24.65" shape-rendering="crispEdges"/><rect fill="#191919" x="109.8" y="221.1" width="12.2" height="24.65" shape-rendering="crispEdges"/><rect fill="#1e1e1e" x="122" y="221.1" width="927.2" height="24.65" shape-rendering="crispEdges"/><rect fill="#121212" x="1049.2" y="221.1" width="12.2" height="24.65" shape-rendering="crispEdges"/><rect fill="#121212" x="0" y="245.5" width="1061.4" height="24.65" shape-rendering="crispEdges"/><rect fill="#121212" x="0" y="269.9" width="1061.4" height="24.65" shape-rendering="crispEdges"/><rect fill="#121212" x="0" y="294.3" width="1061.4" height="24.65" shape-rendering="crispEdges"/><rect fill="#121212" x="0" y="318.7" width="1061.4" height="24.65" shape-rendering="crispEdges"/><rect fill="#121212" x="0" y="343.1" width="1061.4" height="24.65" shape-rendering="crispEdges"/><rect fill="#121212" x="0" y="367.5" width="1061.4" height="24.65" shape-rendering="crispEdges"/><rect fill="#121212" x="0" y="391.9" width="1061.4" height="24.65" shape-rendering="crispEdges"/><rect fill="#121212" x="0" y="416.3" width="1061.4" height="24.65" shape-rendering="crispEdges"/><rect fill="#121212" x="0" y="440.7" width="1061.4" height="24.65" shape-rendering="crispEdges"/><rect fill="#121212" x="0" y="465.1" width="1061.4" height="24.65" shape-rendering="crispEdges"/><rect fill="#121212" x="0" y="489.5" width="1061.4" height="24.65" shape-rendering="crispEdges"/><rect fill="#1e1e1e" x="0" y="513.9" width="207.4" height="24.65" shape-rendering="crispEdges"/><rect fill="#0178d4" x="207.4" y="513.9" width="195.2" height="24.65" shape-rendering="crispEdges"/><rect fill="#632635" x="402.6" y="513.9" width="195.2" height="24.65" shape-rendering="crispEdges"/><rect fill="#121212" x="597.8" y="513.9" width="463.6" height="24.65" shape-rendering="crispEdges"/><rect fill="#1e1e1e" x="0" y="538.3" width="207.4" height="24.65" shape-rendering="crispEdges"/><rect fill="#0178d4" x="207.4" y="538.3" width="36.6" height="24.65" shape-rendering="crispEdges"/><rect fill="#0178d4" x="244" y="538.3" width="109.8" height="24.65" shape-rendering="crispEdges"/><rect fill="#0178d4" x="353.8" y="538.3" width="48.8" height="24.65" shape-rendering="crispEdges"/><rect fill="#632635" x="402.6" y="538.3" width="24.4" height="24.65" shape-rendering="crispEdges"/><rect fill="#632635" x="427" y="538.3" width="146.4" height="24.65" shape-rendering="crispEdges"/><rect fill="#632635" x="573.4" y="538.3" width="24.4" height="24.65" shape-rendering="crispEdges"/><rect fill="#121212" x="597.8" y="538.3" width="463.6" height="24.65" shape-rendering="crispEdges"/><rect fill="#1e1e1e" x="0" y="562.7" width="207.4" height="24.65" shape-rendering="crispEdges"/><rect fill="#0178d4" x="207.4" y="562.7" width="195.2" height="24.65" shape-rendering="crispEdges"/><rect fill="#632635" x="402.6" y="562.7" width="195.2" height="24.65" shape-rendering="crispEdges"/><rect fill="#121212" x="597.8" y="562.7" width="463.6" height="24.65" shape-rendering="crispEdges"/><rect fill="#242f38" x="0" y="587.1" width="915" height="24.65" shape-rendering="crispEdges"/><rect fill="#242f38" x="915" y="587.1" width="146.4" height="24.65" shape-rendering="crispEdges"/>
    <g class="terminal-957329330-matrix">
    <text class="terminal-957329330-r2" x="12.2" y="20" textLength="12.2" clip-path="url(#terminal-957329330-line-0)">⭘</text><text class="terminal-957329330-r2" x="341.6" y="20" textLength="353.8" clip-path="url(#terminal-957329330-line-0)">I-man&#160;Interactive&#160;Terminal</text><text class="terminal-957329330-r1" x="1061.4" y="20" textLength="12.2" clip-path="url(#terminal-957329330-line-0)">
</text><text class="terminal-957329330-r3" x="12.2" y="44.4" textLength="122" clip-path="url(#terminal-957329330-line-1)">Connection</text><text class="terminal-957329330-r4" x="158.6" y="44.4" textLength="97.6" clip-path="url(#terminal-957329330-line-1)">Commands</text><text class="terminal-957329330-r5" x="280.6" y="44.4" textLength="48.8" clip-path="url(#terminal-957329330-line-1)">Logs</text><text class="terminal-957329330-r1" x="1061.4" y="44.4" textLength="12.2" clip-path="url(#terminal-957329330-line-1)">
</text><text class="terminal-957329330-r6" x="0" y="68.8" textLength="12.2" clip-path="url(#terminal-957329330-line-2)">╸</text><text class="terminal-957329330-r7" x="12.2" y="68.8" textLength="122" clip-path="url(#terminal-957329330-line-2)">━━━━━━━━━━</text><text class="terminal-957329330-r6" x="134.2" y="68.8" textLength="12.2" clip-path="url(#terminal-957329330-line-2)">╺</text><text class="terminal-957329330-r6" x="146.4" y="68.8" textLength="915" clip-path="url(#terminal-957329330-line-2)">━━━━━━━━━━━━━━━━━━━━━━━━━━━━━━━━━━━━━━━━━━━━━━━━━━━━━━━━━━━━━━━━━━━━━━━━━━━</text><text class="terminal-957329330-r1" x="1061.4" y="68.8" textLength="12.2" clip-path="url(#terminal-957329330-line-2)">
</text><text class="terminal-957329330-r2" x="0" y="93.2" textLength="48.8" clip-path="url(#terminal-957329330-line-3)">Port</text><text class="terminal-957329330-r8" x="109.8" y="93.2" textLength="12.2" clip-path="url(#terminal-957329330-line-3)">▊</text><text class="terminal-957329330-r9" x="122" y="93.2" textLength="927.2" clip-path="url(#terminal-957329330-line-3)">▔▔▔▔▔▔▔▔▔▔▔▔▔▔▔▔▔▔▔▔▔▔▔▔▔▔▔▔▔▔▔▔▔▔▔▔▔▔▔▔▔▔▔▔▔▔▔▔▔▔▔▔▔▔▔▔▔▔▔▔▔▔▔▔▔▔▔▔▔▔▔▔▔▔▔▔</text><text class="terminal-957329330-r9" x="1049.2" y="93.2" textLength="12.2" clip-path="url(#terminal-957329330-line-3)">▎</text><text class="terminal-957329330-r1" x="1061.4" y="93.2" textLength="12.2" clip-path="url(#terminal-957329330-line-3)">
</text><text class="terminal-957329330-r8" x="109.8" y="117.6" textLength="12.2" clip-path="url(#terminal-957329330-line-4)">▊</text><text class="terminal-957329330-r10" x="146.4" y="117.6" textLength="48.8" clip-path="url(#terminal-957329330-line-4)">COM1</text><text class="terminal-957329330-r9" x="1049.2" y="117.6" textLength="12.2" clip-path="url(#terminal-957329330-line-4)">▎</text><text class="terminal-957329330-r1" x="1061.4" y="117.6" textLength="12.2" clip-path="url(#terminal-957329330-line-4)">
</text><text class="terminal-957329330-r8" x="109.8" y="142" textLength="12.2" clip-path="url(#terminal-957329330-line-5)">▊</text><text class="terminal-957329330-r9" x="122" y="142" textLength="927.2" clip-path="url(#terminal-957329330-line-5)">▁▁▁▁▁▁▁▁▁▁▁▁▁▁▁▁▁▁▁▁▁▁▁▁▁▁▁▁▁▁▁▁▁▁▁▁▁▁▁▁▁▁▁▁▁▁▁▁▁▁▁▁▁▁▁▁▁▁▁▁▁▁▁▁▁▁▁▁▁▁▁▁▁▁▁▁</text><text class="terminal-957329330-r9" x="1049.2" y="142" textLength="12.2" clip-path="url(#terminal-957329330-line-5)">▎</text><text class="terminal-957329330-r1" x="1061.4" y="142" textLength="12.2" clip-path="url(#terminal-957329330-line-5)">
</text><text class="terminal-957329330-r1" x="1061.4" y="166.4" textLength="12.2" clip-path="url(#terminal-957329330-line-6)">
</text><text class="terminal-957329330-r2" x="0" y="190.8" textLength="97.6" clip-path="url(#terminal-957329330-line-7)">Protocol</text><text class="terminal-957329330-r8" x="109.8" y="190.8" textLength="12.2" clip-path="url(#terminal-957329330-line-7)">▊</text><text class="terminal-957329330-r9" x="122" y="190.8" textLength="927.2" clip-path="url(#terminal-957329330-line-7)">▔▔▔▔▔▔▔▔▔▔▔▔▔▔▔▔▔▔▔▔▔▔▔▔▔▔▔▔▔▔▔▔▔▔▔▔▔▔▔▔▔▔▔▔▔▔▔▔▔▔▔▔▔▔▔▔▔▔▔▔▔▔▔▔▔▔▔▔▔▔▔▔▔▔▔▔</text><text class="terminal-957329330-r9" x="1049.2" y="190.8" textLength="12.2" clip-path="url(#terminal-957329330-line-7)">▎</text><text class="terminal-957329330-r1" x="1061.4" y="190.8" textLength="12.2" clip-path="url(#terminal-957329330-line-7)">
</text><text class="terminal-957329330-r8" x="109.8" y="215.2" textLength="12.2" clip-path="url(#terminal-957329330-line-8)">▊</text><text class="terminal-957329330-r2" x="146.4" y="215.2" textLength="73.2" clip-path="url(#terminal-957329330-line-8)">GeoCom</text><text class="terminal-957329330-r11" x="1012.6" y="215.2" textLength="12.2" clip-path="url(#terminal-957329330-line-8)">▼</text><text class="terminal-957329330-r9" x="1049.2" y="215.2" textLength="12.2" clip-path="url(#terminal-957329330-line-8)">▎</text><text class="terminal-957329330-r1" x="1061.4" y="215.2" textLength="12.2" clip-path="url(#terminal-957329330-line-8)">
</text><text class="terminal-957329330-r8" x="109.8" y="239.6" textLength="12.2" clip-path="url(#terminal-957329330-line-9)">▊</text><text class="terminal-957329330-r9" x="122" y="239.6" textLength="927.2" clip-path="url(#terminal-957329330-line-9)">▁▁▁▁▁▁▁▁▁▁▁▁▁▁▁▁▁▁▁▁▁▁▁▁▁▁▁▁▁▁▁▁▁▁▁▁▁▁▁▁▁▁▁▁▁▁▁▁▁▁▁▁▁▁▁▁▁▁▁▁▁▁▁▁▁▁▁▁▁▁▁▁▁▁▁▁</text><text class="terminal-957329330-r9" x="1049.2" y="239.6" textLength="12.2" clip-path="url(#terminal-957329330-line-9)">▎</text><text class="terminal-957329330-r1" x="1061.4" y="239.6" textLength="12.2" clip-path="url(#terminal-957329330-line-9)">
</text><text class="terminal-957329330-r1" x="1061.4" y="264" textLength="12.2" clip-path="url(#terminal-957329330-line-10)">
</text><text class="terminal-957329330-r1" x="1061.4" y="288.4" textLength="12.2" clip-path="url(#terminal-957329330-line-11)">
</text><text class="terminal-957329330-r1" x="1061.4" y="312.8" textLength="12.2" clip-path="url(#terminal-957329330-line-12)">
</text><text class="terminal-957329330-r1" x="1061.4" y="337.2" textLength="12.2" clip-path="url(#terminal-957329330-line-13)">
</text><text class="terminal-957329330-r1" x="1061.4" y="361.6" textLength="12.2" clip-path="url(#terminal-957329330-line-14)">
</text><text class="terminal-957329330-r1" x="1061.4" y="386" textLength="12.2" clip-path="url(#terminal-957329330-line-15)">
</text><text class="terminal-957329330-r1" x="1061.4" y="410.4" textLength="12.2" clip-path="url(#terminal-957329330-line-16)">
</text><text class="terminal-957329330-r1" x="1061.4" y="434.8" textLength="12.2" clip-path="url(#terminal-957329330-line-17)">
</text><text class="terminal-957329330-r1" x="1061.4" y="459.2" textLength="12.2" clip-path="url(#terminal-957329330-line-18)">
</text><text class="terminal-957329330-r1" x="1061.4" y="483.6" textLength="12.2" clip-path="url(#terminal-957329330-line-19)">
</text><text class="terminal-957329330-r1" x="1061.4" y="508" textLength="12.2" clip-path="url(#terminal-957329330-line-20)">
</text><text class="terminal-957329330-r12" x="0" y="532.4" textLength="207.4" clip-path="url(#terminal-957329330-line-21)">▔▔▔▔▔▔▔▔▔▔▔▔▔▔▔▔▔</text><text class="terminal-957329330-r13" x="207.4" y="532.4" textLength="195.2" clip-path="url(#terminal-957329330-line-21)">▔▔▔▔▔▔▔▔▔▔▔▔▔▔▔▔</text><text class="terminal-957329330-r14" x="402.6" y="532.4" textLength="195.2" clip-path="url(#terminal-957329330-line-21)">▔▔▔▔▔▔▔▔▔▔▔▔▔▔▔▔</text><text class="terminal-957329330-r1" x="1061.4" y="532.4" textLength="12.2" clip-path="url(#terminal-957329330-line-21)">
</text><text class="terminal-957329330-r15" x="0" y="556.8" textLength="207.4" clip-path="url(#terminal-957329330-line-22)">&#160;Test&#160;Connection&#160;</text><text class="terminal-957329330-r3" x="244" y="556.8" textLength="109.8" clip-path="url(#terminal-957329330-line-22)">&#160;Connect&#160;</text><text class="terminal-957329330-r16" x="427" y="556.8" textLength="146.4" clip-path="url(#terminal-957329330-line-22)">&#160;Disconnect&#160;</text><text class="terminal-957329330-r1" x="1061.4" y="556.8" textLength="12.2" clip-path="url(#terminal-957329330-line-22)">
</text><text class="terminal-957329330-r17" x="0" y="581.2" textLength="207.4" clip-path="url(#terminal-957329330-line-23)">▁▁▁▁▁▁▁▁▁▁▁▁▁▁▁▁▁</text><text class="terminal-957329330-r18" x="207.4" y="581.2" textLength="195.2" clip-path="url(#terminal-957329330-line-23)">▁▁▁▁▁▁▁▁▁▁▁▁▁▁▁▁</text><text class="terminal-957329330-r19" x="402.6" y="581.2" textLength="195.2" clip-path="url(#terminal-957329330-line-23)">▁▁▁▁▁▁▁▁▁▁▁▁▁▁▁▁</text><text class="terminal-957329330-r1" x="1061.4" y="581.2" textLength="12.2" clip-path="url(#terminal-957329330-line-23)">
</text>
    </g>
    </g>
</svg>
