<?xml version="1.0" encoding="UTF-8"?>
<svg xmlns="http://www.w3.org/2000/svg" width="1024" height="1024" viewBox="0 0 1024 1024" role="img">
  <title>numba-lapack logo</title>
  <rect width="100%" height="100%" fill="#ffffff"/>
  <rect x="248" y="248" width="160" height="160" rx="24" ry="24" fill="#E5E7EB" stroke="none" stroke-width="0" opacity="0.6"/>
<rect x="432" y="248" width="160" height="160" rx="24" ry="24" fill="#E5E7EB" stroke="none" stroke-width="0" opacity="0.6"/>
<rect x="616" y="248" width="160" height="160" rx="24" ry="24" fill="#E5E7EB" stroke="none" stroke-width="0" opacity="0.6"/>
<rect x="248" y="432" width="160" height="160" rx="24" ry="24" fill="#E5E7EB" stroke="none" stroke-width="0" opacity="0.6"/>
<rect x="432" y="432" width="160" height="160" rx="24" ry="24" fill="#E5E7EB" stroke="none" stroke-width="0" opacity="0.6"/>
<rect x="616" y="432" width="160" height="160" rx="24" ry="24" fill="#E5E7EB" stroke="none" stroke-width="0" opacity="0.6"/>
<rect x="248" y="616" width="160" height="160" rx="24" ry="24" fill="#E5E7EB" stroke="none" stroke-width="0" opacity="0.6"/>
<rect x="432" y="616" width="160" height="160" rx="24" ry="24" fill="#E5E7EB" stroke="none" stroke-width="0" opacity="0.6"/>
<rect x="616" y="616" width="160" height="160" rx="24" ry="24" fill="#E5E7EB" stroke="none" stroke-width="0" opacity="0.6"/>
<path d="M 208,228 H 128 V 796 H 208" fill="none" stroke="#111827" stroke-width="40" stroke-linecap="round" stroke-linejoin="round"/>
<path d="M 296.0,280.0 L 440.0,712.0 L 536.0,440.0 Q 568.0,376.0 616.0,408.0" fill="none" stroke="#0EA5A8" stroke-width="50" stroke-linecap="round" stroke-linejoin="round"/>
</svg>