<?xml version="1.0" encoding="UTF-8" standalone="no"?>
<!-- Created with Inkscape (http://www.inkscape.org/) -->

<svg
   width="387.36011mm"
   height="275.09161mm"
   viewBox="0 0 387.36011 275.09161"
   version="1.1"
   id="svg1"
   inkscape:version="1.3.1 (1:1.3.1+202311172155+91b66b0783)"
   sodipodi:docname="RAPDORRaptor.svg"
   xmlns:inkscape="http://www.inkscape.org/namespaces/inkscape"
   xmlns:sodipodi="http://sodipodi.sourceforge.net/DTD/sodipodi-0.dtd"
   xmlns="http://www.w3.org/2000/svg"
   xmlns:svg="http://www.w3.org/2000/svg">
  <sodipodi:namedview
     id="namedview1"
     pagecolor="#ffffff"
     bordercolor="#666666"
     borderopacity="1.0"
     inkscape:showpageshadow="2"
     inkscape:pageopacity="0.0"
     inkscape:pagecheckerboard="0"
     inkscape:deskcolor="#d1d1d1"
     inkscape:document-units="mm"
     showguides="true"
     inkscape:zoom="1.5340488"
     inkscape:cx="231.08782"
     inkscape:cy="70.727867"
     inkscape:window-width="1920"
     inkscape:window-height="1043"
     inkscape:window-x="0"
     inkscape:window-y="0"
     inkscape:window-maximized="1"
     inkscape:current-layer="layer1"
     showgrid="false" />
  <defs
     id="defs1" />
  <g
     inkscape:label="Layer 1"
     inkscape:groupmode="layer"
     id="layer1"
     transform="translate(-24.411242,62.443779)">
    <path
       style="fill:#8affac;fill-opacity:1;stroke:#000000;stroke-width:2;stroke-linecap:square;stroke-dasharray:none"
       d="m 107.73393,-52.951326 c 6.46979,17.277308 -5.53047,30.049378 -5.53047,30.049378 -11.063892,9.655663 -47.876026,26.5765105 -47.876026,26.5765105 -8.885653,-0.020436 -14.505,-1.2855991 -14.911981,-7.469838 -0.265896,-4.0403888 10.900977,-6.3689635 18.014074,-9.0503365 8.078582,-3.045325 11.386834,-10.481147 11.386834,-10.481147"
       id="path7"
       sodipodi:nodetypes="cccssc" />
    <path
       style="fill:#8affac;fill-opacity:1;stroke:#000000;stroke-width:2;stroke-linecap:square;stroke-dasharray:none"
       d="m 67.96161,-53.482128 c 0,0 -51.335107,13.565953 -41.264674,35.240403 -0.06234,1.41665 14.118765,5.850759 26.813088,-0.991269 9.03521,-4.869857 18.739864,-3.186525 28.817862,-7.138116 0,0 3.011299,-0.501215 3.858676,-2.724129 0.427948,-1.12263 0.303985,-2.684381 -1.038498,-4.842462"
       id="path6"
       sodipodi:nodetypes="ccscsc" />
    <path
       style="fill:#8affac;fill-opacity:1;stroke:#000000;stroke-width:2;stroke-linecap:butt;stroke-linejoin:miter;stroke-dasharray:none;stroke-opacity:1"
       d="m 61.23841,-47.288746 c 0,0 6.253824,-14.635855 17.556034,-14.142791 11.302202,0.493057 27.133136,-0.987385 46.583496,15.941043 0,0 24.98686,37.4788224 1.87422,67.84662 -5.2038,6.837313 -6.80254,9.219887 -5.43611,12.790823 3.32961,8.701376 3.65371,14.63086 19.66481,28.085266 3.65681,3.072888 44.8077,103.374005 58.24936,113.199995 46.39021,33.91169 137.51354,6.70028 151.90979,4.97161 13.70099,-1.64519 21.26687,-8.81854 48.22583,2.77458 7.54566,3.24485 14.71605,9.90066 8.59911,9.10516 -5.90117,-0.76744 -17.38027,-7.13144 -17.38027,-7.13144 -58.83064,0.13894 -97.74279,25.69731 -162.12619,24.86589 C 180.59943,210.82262 80.417651,142.7349 73.619929,105.43273 70.725635,89.550508 66.275157,69.880614 72.021692,54.559309 76.375412,42.951495 103.95444,12.01704 103.95444,12.01704 c 10.24805,-21.495335 -1.75098,-34.918988 -1.75098,-34.918988"
       id="path5"
       sodipodi:nodetypes="cscssssssscssscc" />
    <path
       style="fill:#ff8add;fill-opacity:1;stroke:#000000;stroke-width:1;stroke-linecap:round;stroke-dasharray:none;stroke-opacity:1"
       d="m 183.9487,152.53448 c 0,0 -11.59238,25.24666 -13.98241,30.92861 -3.38484,8.04693 25.64876,-15.98641 20.41342,-18.40947 -3.42967,-1.58734 -7.56263,9.14676 -7.40677,5.08995 0.22581,-5.87731 0.97576,-17.60909 0.97576,-17.60909 z"
       id="path20-9-2-9-3-1"
       sodipodi:nodetypes="csssc" />
    <path
       style="fill:#ff8add;fill-opacity:1;stroke:#000000;stroke-width:1;stroke-linecap:round;stroke-dasharray:none;stroke-opacity:1"
       d="m 168.73535,122.33575 c 0,0 4.47476,14.952 -2.87385,26.08009 -4.81063,7.28478 18.06859,-3.79172 12.83325,-6.21478 -3.42967,-1.58734 -1.69893,-4.51897 -3.90575,-7.92659 -2.92941,-4.52339 -6.05365,-11.93872 -6.05365,-11.93872 z"
       id="path20-9-2-9-3"
       sodipodi:nodetypes="csssc" />
    <path
       style="fill:#8affac;fill-opacity:1;stroke:#000000;stroke-width:2;stroke-linecap:round;stroke-dasharray:none;stroke-opacity:1"
       d="m 111.02978,205.69553 c -2.7577,0.63378 -11.114803,5.97058 -11.114803,5.97058 0,0 31.988493,-6.19944 33.502003,-2.96284 0,0 -5.33695,-6.9262 -22.3872,-3.00774 z"
       id="path21"
       sodipodi:nodetypes="sccs" />
    <path
       style="fill:#ff8add;fill-opacity:1;stroke:#000000;stroke-width:2;stroke-linecap:round;stroke-opacity:1"
       d="m 76.014196,47.692879 c 0,0 37.858304,59.649131 36.666034,77.838071 -1.19227,18.18895 -9.04201,20.97257 -9.04201,20.97257 0,0 0.0524,0.12051 -6.04619,-5.11023 -5.774694,-4.95289 -17.191904,-13.85521 -24.858671,-40.02517 0,0 -7.08421,-47.200736 3.280837,-53.675241 z"
       id="path1"
       sodipodi:nodetypes="cscscc" />
    <g
       id="g1"
       transform="rotate(-60.117392,68.330511,25.122079)">
      <path
         style="fill:#8affac;fill-opacity:1;stroke:#000000;stroke-width:2;stroke-linecap:square;stroke-dasharray:none"
         d="m 52.496189,54.311107 c 0,0 -21.925186,15.585989 -27.521996,22.339 0,0 -34.639009,-0.861938 -39.560445,1.648118 -4.921437,2.510056 -10.216838,13.15796 -6.382511,24.136525 0,0 7.546184,-20.106306 10.856355,-20.983728 0,0 23.932304,-0.836552 31.644999,4.208949 0,0 42.21134,-10.798842 41.393687,-16.949879"
         id="path11-2"
         sodipodi:nodetypes="ccscccc" />
      <path
         style="fill:#000000;fill-opacity:1;stroke:#000000;stroke-width:2;stroke-linecap:square;stroke-dasharray:none"
         d="m -12.912444,82.640718 c -1.64088,0.931144 -2.879726,2.363102 -3.797501,4.084485 -3.924141,7.360181 -1.978302,20.011617 -0.490044,21.430387 -3.850233,1.36324 -4.845835,-7.30769 -4.845835,-7.30769 0,0 0.802176,-18.224095 9.13338,-18.207182 z"
         id="path12-7"
         sodipodi:nodetypes="csccc" />
    </g>
    <ellipse
       style="fill:#ffffff;fill-opacity:1;stroke:#000000;stroke-width:1;stroke-linecap:round;stroke-dasharray:none;stroke-opacity:1"
       id="path17"
       cx="74.816895"
       cy="-50.300251"
       rx="4.7529116"
       ry="7.2937303" />
    <path
       id="path17-8"
       style="fill:#000000;fill-opacity:1;stroke:#000000;stroke-width:1;stroke-linecap:round;stroke-dasharray:none;stroke-opacity:1"
       d="m 72.012687,-49.4134 a 1.2807776,3.5704253 0 0 1 -1.280522,-3.570457 1.2807776,3.5704253 0 0 1 0.081,-1.246937 4.7529113,7.2937306 0 0 1 1.960407,-1.61908 1.2807776,3.5704253 0 0 1 0.520088,2.866017 1.2807776,3.5704253 0 0 1 -1.280973,3.570457 z" />
    <path
       style="fill:#ff8add;fill-opacity:1;stroke:#000000;stroke-width:1;stroke-linecap:round;stroke-dasharray:none;stroke-opacity:1"
       d="m 126.67193,46.674299 c 0,0 -13.40225,5.790351 -14.04162,14.783034 -0.63934,8.992677 16.0252,-1.724188 18.53281,-4.81659 2.19766,-2.710186 -0.71433,-2.874926 -1.23505,-4.389203 -1.01638,-2.955731 -3.25614,-5.577241 -3.25614,-5.577241 z"
       id="path20"
       sodipodi:nodetypes="csssc" />
    <path
       style="fill:#ff8add;fill-opacity:1;stroke:#000000;stroke-width:1;stroke-linecap:round;stroke-dasharray:none;stroke-opacity:1"
       d="m 138.69751,61.012343 c 0,0 -23.98718,26.085092 -23.28596,35.862714 0.49719,6.932623 30.73172,-17.068357 31.78506,-21.246114 0.30849,-1.223531 -2.61517,-7.400434 -3.75332,-8.819927 -2.74806,-3.427371 -4.74578,-5.796673 -4.74578,-5.796673 z"
       id="path20-9"
       sodipodi:nodetypes="csssc" />
    <path
       style="fill:#ff8add;fill-opacity:1;stroke:#000000;stroke-width:1;stroke-linecap:round;stroke-dasharray:none;stroke-opacity:1"
       d="m 136.22549,-12.368745 c 1.00404,1.516583 -26.58512,9.0067018 -17.47061,3.9000164 3.28158,-1.8386064 11.07398,-7.0421304 15.32542,-13.3281874 1.00742,-1.489534 1.74315,4.126871 2.1673,6.601421 0.47329,2.761213 -0.0221,2.82675 -0.0221,2.82675 z"
       id="path20-9-3"
       sodipodi:nodetypes="csssc" />
    <path
       style="fill:#ff8add;fill-opacity:1;stroke:#000000;stroke-width:1;stroke-linecap:round;stroke-dasharray:none;stroke-opacity:1"
       d="m 132.0036,14.389247 c -6.67234,-1.755768 -26.76382,-9.0201813 -17.42643,-8.8627398 3.7613,0.063424 15.52341,3.0343585 20.81383,-3.1863917 1.16501,-1.36986941 -1.28383,2.4323121 -0.85968,4.9068815 0.47328,2.761233 -2.52772,7.14225 -2.52772,7.14225 z"
       id="path20-9-3-7"
       sodipodi:nodetypes="csssc" />
    <path
       style="fill:#ff8add;fill-opacity:1;stroke:#000000;stroke-width:1;stroke-linecap:round;stroke-dasharray:none;stroke-opacity:1"
       d="m 123.00432,38.209323 c -6.67234,-1.755768 -34.928353,4.399181 -27.556436,-1.33197 3.076059,-2.391416 22.042356,-1.737315 27.510716,-9.433874 1.04152,-1.465901 -1.86853,4.244545 -1.44437,6.719114 0.47328,2.761232 1.49009,4.04673 1.49009,4.04673 z"
       id="path20-9-3-7-5"
       sodipodi:nodetypes="csssc" />
    <path
       style="fill:#8affac;fill-opacity:1;stroke:#000000;stroke-width:2;stroke-linecap:square;stroke-dasharray:none"
       d="m 158.02383,111.41779 c 11.8134,7.6221 -6.70867,28.94351 -14.16172,57.51129 0,0 2.67854,5.13416 7.18198,17.36206 0,0 5.59229,0.0936 4.82591,7.96231 0,0 -17.12024,9.58181 -22.06377,15.33167 0,0 -22.90724,-8.32237 -35.022775,-0.71054 1.779315,-4.27993 13.323445,-7.49034 13.323445,-7.49034 19.06907,-1.17324 20.59788,1.58111 20.59788,1.58111 4.46288,-9.12104 7.72333,-13.33028 7.72333,-13.33028 -8.98916,-17.40253 -23.67402,-36.22077 -23.72444,-44.54347 -0.11035,-18.21226 9.93247,-38.71114 9.93247,-38.71114"
       id="path10"
       sodipodi:nodetypes="cccccccccsc" />
    <path
       style="fill:#ff8add;fill-opacity:1;stroke:#000000;stroke-width:1;stroke-linecap:round;stroke-dasharray:none;stroke-opacity:1"
       d="m 152.46574,85.483096 c 0,0 -11.17221,14.071994 -10.47098,23.849614 0.49719,6.93263 14.92419,-3.55878 15.97753,-7.73654 0.48665,-1.930121 -0.65318,-4.091785 -2.13495,-6.909022 -1.91864,-3.647825 -3.3716,-9.204052 -3.3716,-9.204052 z"
       id="path20-9-2"
       sodipodi:nodetypes="csssc" />
    <path
       style="fill:#ff8add;fill-opacity:1;stroke:#000000;stroke-width:1;stroke-linecap:round;stroke-dasharray:none;stroke-opacity:1"
       d="m 124.64671,-31.086269 c 1.00404,1.516584 -21.87763,11.638681 -12.76312,6.531995 3.28158,-1.838606 9.53405,-13.770323 13.78549,-20.056385 1.00742,-1.489533 1.63377,4.120427 3.40342,6.452129 3.08362,4.062989 -4.42579,7.072261 -4.42579,7.072261 z"
       id="path20-9-3-6"
       sodipodi:nodetypes="csssc" />
    <path
       style="fill:#ff8add;fill-opacity:1;stroke:#000000;stroke-width:1;stroke-linecap:round;stroke-dasharray:none;stroke-opacity:1"
       d="m 118.48483,-50.004949 c -6.20441,6.190152 -21.186489,9.574652 -12.07198,4.467964 3.28158,-1.838601 -1.51849,-3.688725 2.73296,-9.974786 1.00741,-1.489534 -0.52684,-0.647136 2.83912,1.048267 5.1546,2.596339 6.4999,4.458555 6.4999,4.458555 z"
       id="path20-9-3-6-7"
       sodipodi:nodetypes="csssc" />
  </g>
</svg>
